<?xml version="1.0" encoding="utf-8"?>
<!-- Generator: Adobe Illustrator 21.1.0, SVG Export Plug-In . SVG Version: 6.00 Build 0)  -->
<svg version="1.1" xmlns="http://www.w3.org/2000/svg" xmlns:xlink="http://www.w3.org/1999/xlink" x="0px" y="0px"
	 viewBox="0 0 849.4 359.5" style="enable-background:new 0 0 849.4 359.5;" xml:space="preserve">
<style type="text/css">
	.st0{fill:#6E253C;}
</style>
<g id="Layer_1">
	<path class="st0" d="M756.3,263.3c10.8,7.9,20.8,15,30.6,22.4c1.2,0.9,1.7,3.1,1.8,4.8c0.2,7.7,0.1,15.3,0.1,23
		c0,5.5,2.5,8.2,7.9,8.9c4.1,0.5,8.2,1.2,12.4,1.7c5.2,0.7,8.1-1.6,8.1-6.7c0.1-15.7,0.1-31.3-0.1-47c0-2.1-1.5-4.8-3.1-6.2
		c-17.9-16.5-35.9-32.8-54.1-49c-2.8-2.5-3.8-4.9-3.8-8.5c0.2-17,0-34,0.2-51c0-2.3,1.2-5.1,2.8-6.9c7.5-8.1,15.2-15.9,23-23.6
		c1.5-1.4,3.9-2.5,6-2.5c9.7-0.3,19.3-0.3,29,0c2.2,0.1,4.8,1.3,6.3,2.8c8,8.2,15.7,16.7,23.5,25.3c1.1,1.3,2.3,3.1,2.3,4.7
		c0.1,17.3,0.1,34.7,0,52c0,0.4-0.3,0.9-0.7,1.9c-7.2-5.2-13.7-10.9-21.1-15.2c-8.4-4.8-11.2-11.1-10.4-20.6
		c1.2-15.7,0-17.4-16.1-16.8c-1.7,0.1-3.3-0.3-5-0.4c-4.1-0.1-7.5,2.8-7.5,6.9c-0.1,10.2-0.2,20.3,0.1,30.5c0.1,1.8,1.5,4,3,5.3
		c18.1,16.8,36.3,33.3,54.3,50.2c1.9,1.8,3.4,5,3.4,7.6c0.3,24.3,0.2,48.7,0,73c0,2.3-1.2,5.2-2.9,6.8c-7.4,7.2-15,14.2-22.7,21
		c-1.4,1.2-3.8,1.9-5.6,1.7c-9.9-1.2-19.8-2.7-29.6-4.5c-2.1-0.4-4.4-1.6-5.8-3.2c-8.2-9.2-16.2-18.6-24.2-28c-1.1-1.3-2-3.2-2-4.8
		C756.3,300.8,756.3,282.7,756.3,263.3z"/>
	<path class="st0" d="M717.2,217.6c6.6,9,12.5,18,19.4,26.3c5.8,6.9,8,14.2,7.6,23.3c-0.6,15.6-0.2,31.3-0.2,47c0,1.8,0,3.6,0,5.9
		c-10.3-1.1-20.2-1.9-30-3.3c-1-0.1-2.3-3.3-2.3-5.2c-0.2-8.7-0.9-17.4,0.1-26c1.7-15.3-2.3-28.4-12.1-40.1c-3-3.5-5.1-7.7-7.6-11.6
		c-7.8,2.1-9,3.5-9,10.7c0,21.2,0.1,42.3,0.1,63.5c0,1.8,0,3.6,0,5.8c-10.9-0.9-21.2-1.8-32-2.8c-1.6-63,0.6-125.5-1.7-188.4
		c0.9,0,2.3-0.2,3.8-0.2c19.2,0,38.3-0.1,57.5,0.1c2.5,0,5.5,1.3,7.3,3c8,7.6,15.7,15.4,23.2,23.4c1.4,1.5,2.4,4,2.4,6.1
		c0.2,13.8,0,27.7,0.2,41.5c0.1,3.3-1.2,5.1-3.9,6.7C732.5,207.9,725.1,212.7,717.2,217.6z M682.8,206.6
		c9.8-6.6,18.4-12.3,26.8-18.2c1-0.7,1.6-2.5,1.6-3.8c0.1-7.7,0.1-15.3,0.1-23c0-4.3-2.4-6.5-6.4-6.8c-6.1-0.4-12.3-0.3-18.5-0.5
		c-2.4-0.1-3.7,0.6-3.7,3.3C682.9,173.5,682.8,189.3,682.8,206.6z"/>
	<path class="st0" d="M101.2,320.5c4.2-29.7,8.3-58.4,12.4-87.1c4.6-32.1,9.4-64.2,13.8-96.3c0.6-4.5-0.7-9.2-1.1-14.2
		c17.4,0,34.6,0,52.3,0c9.3,62.3,18.6,124.6,27.9,187.5c-10.9,0.9-21.2,1.8-32.2,2.7c-1.7-12.4-3.3-24.5-5-37.4
		c-9.9,0.8-19.4,1.4-29,2.4c-0.9,0.1-2.1,2.3-2.3,3.6c-1.5,10.4-2.7,20.8-4.2,31.2c-0.2,1.5-1.4,3.8-2.5,4
		C121.7,318.4,111.8,319.4,101.2,320.5z M165.5,244.4c-3.6-28.2-7.1-55.6-10.5-83c-0.4,0-0.9,0-1.3,0c-3.6,27.9-7.2,55.7-10.9,84.3
		C150.6,245.2,157.6,244.8,165.5,244.4z"/>
	<path class="st0" d="M59,206.8c0-14.7,0-27.8,0-41c0-7.3-2.2-9.3-9.6-9c-3.3,0.1-6.7,0-10,0.2c-4.5,0.3-7.3,3.1-7.3,7.6
		c0,51,0,102,0,153c0,4.6,2.9,7.1,7.3,6.6c4.1-0.5,8.2-1.1,12.4-1.7c4.2-0.6,7.2-3.5,6.5-7.4c-2.1-12.5,4-21,12.2-29.2
		c6.9-6.8,13.1-14.4,20.5-22.6c0,19.8,0,38.2-0.1,56.7c0,1.3-0.9,2.8-1.8,3.9c-8.2,9.7-16.4,19.3-24.8,28.8
		c-1.1,1.2-2.9,2.2-4.5,2.5c-9.5,1.6-19,3.1-28.6,4.4c-1.7,0.2-4-0.4-5.2-1.6c-8-7.1-15.8-14.3-23.5-21.7c-1.3-1.3-2.4-3.7-2.4-5.5
		c-0.1-58-0.1-116,0-174c0-1.9,0.9-4.3,2.2-5.7c7.8-8.7,15.7-17.3,23.7-25.7c1.4-1.5,3.9-2.6,5.9-2.7c9.2-0.3,18.3-0.3,27.5,0
		c1.9,0.1,4.2,1,5.6,2.4c8.2,8.1,16.2,16.3,24.1,24.7c1.1,1.2,1.9,3.1,1.9,4.8c0.2,5.2,0.2,10.3,0,15.5c0,1.2-0.3,2.8-1.1,3.6
		C80.1,184.3,70.1,195,59,206.8z"/>
	<path class="st0" d="M402.2,302.8c-10.4,0-20.2,0.1-29.9-0.2c-1,0-2.7-2.1-2.9-3.4c-1.5-9.4-2.9-18.8-4-28.2
		c-0.3-3-1.4-4.1-4.3-3.9c-8,0.3-16,0.6-24,0.7c-3.3,0-3.7,2-4,4.5c-1.4,10.4-2.8,20.8-4.3,32c-10.6,0-21.2,0-32.2,0
		c1.7-10.8,3.4-22,5.1-33.3c6.5-41.9,13.2-83.8,19.5-125.8c1.1-7.2,0.9-14.7,1.3-22.3c16.4,0,33.6,0,51.3,0
		C383.2,182.5,392.6,241.9,402.2,302.8z M360.7,237.2c-3.6-26.8-7.2-52.8-10.7-78.8c-0.4,0-0.7-0.1-1.1-0.1
		c-3.6,26.2-7.2,52.4-10.9,78.8C345.8,237.2,352.9,237.2,360.7,237.2z"/>
	<path class="st0" d="M272.3,122.8c10.9,0,21.2,0,32.3,0C295,184,285.5,244.7,275.9,306c-11.4,0.7-22.8,1.4-34.2,2
		c-1.1,0.1-2.6-1.2-3.5-2.3c-4.9-5.7-9.7-11.5-14.3-17.3c-1.2-1.5-2.1-3.5-2.3-5.3c-4.8-34.1-9.6-68.2-14.3-102.3
		c-2.5-17.8-5-35.6-7.5-53.4c-0.2-1.3-0.3-2.6-0.6-4.8c7.5,0,14.8,0,22,0c10.4,0,10.4,0,11.7,10.3c5.8,44.4,11.5,88.7,17.3,133.1
		c0.2,1.8,0.7,3.5,1.8,5.3C258.8,221.9,265.5,172.6,272.3,122.8z"/>
	<path class="st0" d="M636.1,278.9c0,10.6,0,20.6,0,31c-24.2-1.5-48.2-2.9-72.5-4.4c-1.4-60.9,1.1-121.7-1.5-182.6
		c24.1,0,48.6,0,73.6,0c0,10.1,0,20.2,0,30.9c-6.3,0-12.5,0-18.8,0c-5.8-0.1-11.7-0.1-17.5-0.4c-3.1-0.1-4.1,1.1-4,4.1
		c0.1,10.8,0.1,21.7,0,32.5c0,3.3,1.4,4.3,4.5,4.3c7.5,0,15,0.2,22.5,0.3c1.8,0,3.6,0.3,5.5,0.4c0,9,0,17.6,0,26.4
		c-10.7,0-21.2,0-32.5,0c0,9.1-0.1,18.2,0,27.3c0.1,8,0.4,16,0.3,24c0,3.3,1.1,4.3,4.3,4.4C611.8,277.5,623.6,278.3,636.1,278.9z"/>
	<path class="st0" d="M447,272.9c16.5,0,32.3,0,48.9,0c-2.1,10.5-4,20.1-5.9,29.5c-25.2,0-49.9,0-75.4,0c0-2.7,0-4.8,0-6.9
		c0-49.6,0.1-99.3-0.1-148.9c0-7.7-1.1-15.3-1.8-23.4c11.5,0,24.5,0,38,0c-6.3,12.2-3.4,25.2-3.5,37.8c-0.4,35-0.1,70-0.1,105
		C447,267.9,447,269.8,447,272.9z"/>
	<path class="st0" d="M509.8,122.8c10.6,0,22.2,0,33.4,0c0,60.7,0,121.2,0,181.1c-11.4,0-22,0-32.8,0
		C509.9,243.2,511,183.3,509.8,122.8z"/>
	<path class="st0" d="M573.2,42.6c0-13.8,0-27.6,0-41.8c4.9,0,9.6,0,14.6,0c0,29.5,0,58.9,0,89c-3.9,0-7.9,0.3-11.8-0.2
		c-1.2-0.1-2.7-2.2-3.1-3.6c-3.7-11.9-7.1-23.9-10.7-35.8c-0.5-1.5-1-3-2.5-4.4c0,3.4,0,6.8,0,10.2c0,9.8-0.1,19.7,0.1,29.5
		c0,3.1-0.7,4.4-4.2,4.4c-11.2,0.2-11.2,0.3-11.2-10.9c0-20.6,0-41.3,0-61.9c0-5.3,0-10.6,0-16.3c4.1,0,8.8,0,14.1,0
		c4.4,13.8,8.9,27.9,13.4,42.1C572.5,42.7,572.8,42.7,573.2,42.6z"/>
	<path class="st0" d="M595.3,89.8c0-30,0-59.4,0-89.5c9.7,0,19.3-0.2,28.9,0.2c1.9,0.1,3.6,2.6,5.4,3.9c7.9,5.4,10,12.8,9.4,22.3
		c-0.8,15.3-0.3,30.6-0.2,45.9c0,3.4-1.3,5.6-3.3,8.3c-5.8,7.4-12.9,10.1-22.1,9C607.6,89.3,601.6,89.8,595.3,89.8z M610.4,15.6
		c0,19.8,0,39.4,0,59.4c2.1,0,3.9,0,5.7,0c7.3,0,7.5-0.1,7.5-7.6c0-13.6,0-27.3,0-40.9C623.6,14.2,623.6,14.2,610.4,15.6z"/>
	<path class="st0" d="M521.2,72.7c-0.7-0.4-0.8-0.5-1-0.5c-13.6-1.1-13.7-1.1-15.2,12.7c-0.4,3.6-1.6,5.4-5.5,5
		c-3.2-0.3-6.5-0.1-10.2-0.1c4.3-30,8.6-59.4,12.9-89.2c6.7,0,14.5,0,23.1,0c4.4,29.3,8.8,58.8,13.3,88.8c-5.3,0-10,0-15,0
		C522.8,83.8,522,78.2,521.2,72.7z M519.3,57c-1.7-12.8-3.3-25-4.9-37.2c-0.3,0-0.7,0.1-1,0.1c-1.5,12.3-3.1,24.5-4.7,37.1
		C512.5,57,515.5,57,519.3,57z"/>
	<path class="st0" d="M380.5,0.6c4.9,0,9.5,0,14.9,0c-0.9,6.6-1.7,13-2.7,19.3c-3.2,21.7-6.6,43.4-9.7,65.2
		c-0.5,3.7-1.9,5.4-5.7,4.8c-0.6-0.1-1.3,0-2,0c-4.7-0.3-9.8,1.4-13.2-4.3c-2.5-4.3-5.4-8-6.1-13.3c-2.8-22.6-6.2-45.2-9.3-67.7
		c-0.2-1.1-0.3-2.3-0.4-3.8c4.9,0,9.7,0,15,0c3,23.2,6,46.4,9.1,69.6c0.3,0,0.7,0.1,1,0.1C374.4,47.3,377.4,24.2,380.5,0.6z"/>
	<path class="st0" d="M238.3,36c0-5.3-0.1-10.6,0-15.9c0.2-4.7-2.7-5-6.2-4.9c-3.4,0-6.4-0.1-6.4,4.7c0.1,16.8,0.1,33.6,0,50.4
		c0,3.9,2.1,4.9,5.4,4.7c3.2-0.2,7.1,0.9,7.2-4.4c0-1.4,0.5-3,1.4-4c3.7-4.4,7.7-8.7,11.6-13c0.6,0.4,1.3,0.7,1.9,1.1
		c0,7.2,0.8,14.5-0.4,21.5c-0.5,3.1-5.2,5.3-7.4,8.4c-5.6,7.9-14.1,6.3-20.9,4.6c-4.9-1.3-9-7.1-12.8-11.4c-1.4-1.7-1.3-5-1.3-7.5
		c-0.1-17.1,0.1-34.3-0.1-51.4c0-3.8,0.8-6.8,3.9-9.1c0.4-0.3,0.8-0.7,1.1-1.1c5.6-8.3,13.7-9.4,22.7-8.2c1.4,0.2,2.8,0.9,3.9,1.8
		c2.8,2.4,5.3,5,7.9,7.6c5.2,5.2,4.9,11.6-0.3,16.7c-3.4,3.3-6.3,7.2-9.5,10.8C239.5,36.8,238.9,36.4,238.3,36z"/>
	<path class="st0" d="M438.1,75c0,5.1,0,9.5,0,14.4c-11.1,0-22.1,0-33.8,0c0-29.5,0-58.9,0-88.6c10.7,0,22,0,33.7,0
		c0,4.6,0,9.1,0,14.3c-6,0-11.9,0-18.6,0c0,6.2-0.2,11.8,0.2,17.4c0.1,0.9,2.1,2.4,3.3,2.5c3.8,0.3,7.6,0.1,11.4,0.1
		c0.3,1.2,0.5,1.9,0.6,2.5c0.7,10.3,0.7,10.5-9.5,10.3c-4.5-0.1-6.3,1-5.9,5.8c0.4,5.8,0.2,11.6,0.1,17.5c-0.1,3,1,4.2,4.1,4.1
		C428.2,74.9,433,75,438.1,75z"/>
	<path class="st0" d="M339,89.5c-11.4,0-22.4,0-33.9,0c0-29.7,0-59.1,0-88.8c10.8,0,22.2,0,33.9,0c0,4.7,0,9.2,0,14.3
		c-6.1,0-12,0-18.4,0c0,6.7,0,12.9,0,19.9c4.6,0,9.3,0,14.4,0c0,4.6,0,8.5,0,12.9c-4.9,0-9.5,0-14.8,0c0,8.6-0.1,16.7,0.2,24.8
		c0,0.9,2.1,2.3,3.3,2.4c4.9,0.3,9.9,0.1,15.3,0.1C339,80,339,84.6,339,89.5z"/>
	<path class="st0" d="M260.4,0.6c4.6,0,9.8,0,15.6,0c-0.2,3-0.6,5.9-0.6,8.8c-0.1,20,0.1,40-0.1,59.9c-0.1,4.8,1.6,6,6,5.7
		c5.4-0.3,10.9-0.1,16.9-0.1c-0.8,4.5-1.3,8.5-2.3,12.3c-0.3,1-1.9,2.4-2.9,2.5c-10.6,0.2-21.3,0.1-32.6,0.1
		C260.4,59.9,260.4,30.3,260.4,0.6z"/>
	<path class="st0" d="M446.1,89.8c0-30.1,0-59.4,0-89c4.8,0,10.2,0,15.3,0c0,11.2,0,22.5,0,33.7c0,12,0.1,24-0.1,36
		c0,3.5,1.1,4.7,4.6,4.6c5.9-0.2,11.9-0.1,18.2-0.1c-0.8,4.6-1.3,8.5-2.3,12.4c-0.3,1-2,2.3-3,2.4C468.2,89.9,457.6,89.8,446.1,89.8
		z"/>
</g>
<g id="Layer_2">
</g>
</svg>
