<?xml version="1.0" encoding="UTF-8"?>
<svg xmlns="http://www.w3.org/2000/svg" xmlns:rdf="http://www.w3.org/1999/02/22-rdf-syntax-ns#" xmlns:dc="http://purl.org/dc/elements/1.1/" xmlns:cc="http://creativecommons.org/ns#" version="1.1" viewBox="0 0 285.36 117.73">
  <!-- Generator: Adobe Illustrator 30.3.0, SVG Export Plug-In . SVG Version: 2.1.3 Build 182)  -->
  <defs>
    <style>
      .st0 {
        fill: #fff;
      }

      .st1 {
        fill: #cf0a2c;
      }

      .st2 {
        display: none;
      }
    </style>
  </defs>
  <g id="Layer_1" class="st2">
    <path d="M185.48-86.52c-1.7-2.58-3.68-4.97-5.91-7.11-.94-.96-1.94-1.86-2.98-2.7l21.45-21.39h-62.35l-24.09,24.09-.06.06c-2.17,2.2-4.15,4.57-5.91,7.11-1.73,2.59-3.21,5.33-4.42,8.2-5.05,11.96-5.05,25.44,0,37.4,1.2,2.86,2.68,5.58,4.42,8.15,1.7,2.58,3.68,4.97,5.91,7.11.92.99,1.92,1.91,2.98,2.75L93.14-1.46h62.35l24.15-24.21c4.38-4.35,7.87-9.51,10.27-15.2,5.05-11.96,5.05-25.44,0-37.4-1.16-2.91-2.64-5.68-4.42-8.26Z"/>
    <path class="st0" d="M176.82-90.83c-.92-.98-1.95-1.89-2.93-2.75l-26.16,26.27c1.34.38,2.56,1.09,3.56,2.06,3.1,3.17,3.1,8.24,0,11.41L102.77-5.3h5.74l45.6-45.66c4.71-4.71,4.76-12.32.11-17.09l2.81-2.81c6.26,6.28,6.24,16.44-.04,22.69h0s-.02.02-.02.02L114.19-5.3h5.68l39.98-39.98c7.82-7.86,7.84-20.56.06-28.45l2.81-2.81c9.41,9.42,9.4,24.69-.03,34.1l-.03.03L125.54-5.3h5.68l34.3-34.3c11-10.98,11.03-28.8.06-39.81l2.87-2.87c12.53,12.61,12.48,32.99-.11,45.54l-31.43,31.43h5.74l28.56-28.62c14.14-14.1,14.18-36.99.08-51.14l-.03-.03,2.87-2.87c15.68,15.74,15.63,41.21-.11,56.89,0,0,0,0,0,0l-25.7,25.75h5.68l22.89-22.89c17.22-17.34,17.19-45.33-.06-62.64Z"/>
    <path class="st1" d="M114.47-28.3c.92.96,1.9,1.86,2.93,2.7l26.16-26.16c-1.35-.36-2.58-1.07-3.56-2.06-3.15-3.15-3.16-8.26,0-11.41h0s48.53-48.59,48.53-48.59h-5.68l-45.72,45.72c-4.72,4.71-4.74,12.35-.06,17.09l-2.87,2.81c-6.24-6.25-6.23-16.38.02-22.62.03-.03.06-.06.1-.09l42.85-42.9h-5.68l-40.04,40.04c-7.85,7.85-7.87,20.57-.06,28.45l-2.87,2.81c-9.36-9.46-9.34-24.7.06-34.13l37.23-37.17h-5.68l-34.36,34.36c-11,10.98-11.03,28.8-.06,39.81l-2.87,2.87c-12.52-12.61-12.49-32.96.06-45.54l31.49-31.49h-5.68l-28.62,28.68c-14.14,14.1-14.19,37-.11,51.16l-2.81,2.87c-15.7-15.72-15.68-41.19.05-56.89h0s25.81-25.82,25.81-25.82h-5.68l-23,23c-17.23,17.3-17.18,45.29.11,62.52h0Z"/>
    <polygon points="67.44 96.16 64.4 96.16 64.4 93.07 73.92 93.07 73.92 96.16 70.82 96.16 70.82 111.19 67.44 111.19 67.44 96.16"/>
    <path d="M78.28,93.07h7.51l2.24,2.24v6.31l-1.89,1.78,2.01,7.74h-3.38l-1.89-7.4h-1.26v7.46h-3.38v-18.13h.06ZM83.9,101.21l.69-.8v-3.96l-.69-.8h-2.24v5.56h2.24Z"/>
    <path d="M94.86,93.07h4.88l2.75,18.13h-3.33l-.46-4.19h-2.93l-.52,4.19h-3.21l2.81-18.13ZM96.06,104.2h2.18l-1.09-9.01-1.09,9.01Z"/>
    <polygon points="106.33 108.61 108.34 108.61 108.34 95.65 106.33 95.65 106.33 93.07 113.73 93.07 113.73 95.65 111.78 95.65 111.78 108.61 113.73 108.61 113.73 111.19 106.33 111.19 106.33 108.61"/>
    <polygon points="118.43 93.07 121.87 93.07 121.87 108.21 125.72 108.21 125.72 111.19 118.43 111.19 118.43 93.07"/>
    <path d="M137.36,93.07h7.4l2.18,2.24v4.82l-1.78,1.78,1.78,1.78v5.28l-2.18,2.18h-7.4v-18.07ZM142.69,100.64l.86-.86v-3.21l-.75-.69h-2.06v4.82h1.95v-.06ZM142.81,108.5l.75-.69v-3.73l-.86-.8h-2.01v5.16h2.12v.06Z"/>
    <polygon points="151.99 93.07 155.31 93.07 155.31 108.21 159.27 108.21 159.27 111.19 151.99 111.19 151.99 93.07"/>
    <path d="M165.69,93.07h4.93l2.75,18.13h-3.33l-.52-4.19h-2.87l-.52,4.19h-3.21l2.75-18.13ZM167.01,104.2h2.18l-1.15-9.01-1.03,9.01Z"/>
    <polygon points="177.22 108.73 181.87 96.16 177.34 96.16 177.34 93.07 185.54 93.07 185.54 95.48 180.95 108.1 185.54 108.1 185.54 111.19 177.22 111.19 177.22 108.73"/>
    <polygon points="190.24 93.07 198.22 93.07 198.22 96.05 193.69 96.05 193.69 100.47 197.82 100.47 197.82 103.45 193.69 103.45 193.69 108.21 198.27 108.21 198.27 111.19 190.24 111.19 190.24 93.07"/>
    <path d="M203.21,93.07h7.51l2.24,2.24v6.31l-1.78,1.78,1.95,7.8h-3.38l-1.84-7.4h-1.32v7.4h-3.38v-18.13ZM208.83,101.21l.69-.8v-3.96l-.69-.8h-2.24v5.56h2.24Z"/>
    <polygon points="217.43 109.01 217.43 105.74 220.76 105.74 220.76 107.64 221.56 108.44 222.77 108.44 223.45 107.64 223.45 104.19 222.88 103.62 219.33 103.62 217.49 101.67 217.49 95.3 219.67 93.07 224.66 93.07 226.84 95.3 226.84 98.52 223.45 98.52 223.45 96.62 222.77 95.88 221.62 95.88 220.82 96.62 220.82 100.01 221.45 100.52 225 100.52 226.84 102.42 226.84 109.01 224.66 111.19 219.61 111.19 217.43 109.01"/>
    <path d="M43.69,23.61c0-10.5-5.68-14-16.75-14H7.1l8.66,8.66v63.27h10.73v-31.55h.57c10.84,0,16.46-3.33,16.75-13.31v-13.08h-.11ZM26.48,18.27h2.41c2.47,0,4.07.8,4.07,3.56v15.6c0,2.64-.75,3.96-4.53,3.96h-1.84v-23.12h-.11Z"/>
    <path d="M59.01,22.63c0-3.61,1.15-4.42,3.33-4.42s3.21.8,3.21,4.42v45.83c0,3.67-1.15,4.42-3.21,4.42-2.18,0-3.33-.75-3.33-4.42V22.63ZM62.22,81.48c6.65,0,14-2.7,14-12.05V21.71c0-9.41-7.4-12.1-14-12.1s-13.94,2.7-13.94,12.1v47.72c0,9.35,7.4,12.05,13.94,12.05Z"/>
    <path d="M190.19,22.29h.63l2.06,27.65h-5.1l2.41-27.65ZM186.75,58.54h7.06l2.29,22.94h10.78l-8.15-71.87h-16.12l-8.15,71.87h9.69l2.58-22.94Z"/>
    <path d="M264.93,67.54c0,4.65-1.32,5.33-4.07,5.33h-2.58V18.27h2.58c2.7,0,4.07.75,4.07,5.33v43.94ZM275.59,68.46V25.9c0-12.68-4.47-16.29-15.09-16.29h-12.96v71.87h15.2c8.43,0,12.85-6.19,12.85-13.02h0Z"/>
    <path d="M91.47,18.21h2.58c2.41,0,4.07.8,4.07,3.56v14.86c0,2.64-.8,4.65-4.59,4.65h-2.06v-23.06ZM91.64,49.88c4.99-.23,6.6,1.49,6.6,5.79v25.81h10.38s.23-7.74,0-28.51c-.06-6.48-4.13-7.46-4.13-7.46,4.7-2.01,4.13-4.36,4.13-9.69l-.06-13.94c0-9.29-5.05-12.27-13.65-12.27h-14.17v71.87h10.84v-31.6h.06Z"/>
    <polygon points="169.94 72.88 156.29 72.88 156.29 9.61 145.5 9.61 145.5 81.48 169.94 81.48 169.94 72.88"/>
    <polygon points="121.01 18.27 121.01 81.48 131.74 81.48 131.74 18.27 140.97 18.27 140.97 9.61 105.75 9.61 114.47 18.27 121.01 18.27"/>
    <polygon points="221.16 41.62 233.26 81.48 243.01 81.48 243.01 9.61 233.32 9.61 233.32 49.93 221.16 9.61 211.47 9.61 211.47 81.48 221.16 81.48 221.16 41.62"/>
  </g>
  <g id="Layer_1_copy" class="st2">
    <path d="M185.48-85.52c-1.7-2.58-3.68-4.97-5.91-7.11-.94-.96-1.94-1.86-2.98-2.7l21.45-21.39h-62.35l-24.09,24.09-.06.06c-2.17,2.2-4.15,4.57-5.91,7.11-1.73,2.59-3.21,5.33-4.42,8.2-5.05,11.96-5.05,25.44,0,37.4,1.2,2.86,2.68,5.58,4.42,8.15,1.7,2.58,3.68,4.97,5.91,7.11.92.99,1.92,1.91,2.98,2.75L93.14-.46h62.35l24.15-24.21c4.38-4.35,7.87-9.51,10.27-15.2,5.05-11.96,5.05-25.44,0-37.4-1.16-2.91-2.64-5.68-4.42-8.26Z"/>
    <path class="st0" d="M176.82-89.83c-.92-.98-1.95-1.89-2.93-2.75l-26.16,26.27c1.34.38,2.56,1.09,3.56,2.06,3.1,3.17,3.1,8.24,0,11.41L102.77-4.3h5.74l45.6-45.66c4.71-4.71,4.76-12.32.11-17.09l2.81-2.81c6.26,6.28,6.24,16.44-.04,22.69h0s-.02.02-.02.02L114.19-4.3h5.68l39.98-39.98c7.82-7.86,7.84-20.56.06-28.45l2.81-2.81c9.41,9.42,9.4,24.69-.03,34.1l-.03.03L125.54-4.3h5.68l34.3-34.3c11-10.98,11.03-28.8.06-39.81l2.87-2.87c12.53,12.61,12.48,32.99-.11,45.54l-31.43,31.43h5.74l28.56-28.62c14.14-14.1,14.18-36.99.08-51.14l-.03-.03,2.87-2.87c15.68,15.74,15.63,41.21-.11,56.89,0,0,0,0,0,0l-25.7,25.75h5.68l22.89-22.89c17.22-17.34,17.19-45.33-.06-62.64Z"/>
    <path class="st1" d="M114.47-27.3c.92.96,1.9,1.86,2.93,2.7l26.16-26.16c-1.35-.36-2.58-1.07-3.56-2.06-3.15-3.15-3.16-8.26,0-11.41h0s48.53-48.59,48.53-48.59h-5.68l-45.72,45.72c-4.72,4.71-4.74,12.35-.06,17.09l-2.87,2.81c-6.24-6.25-6.23-16.38.02-22.62.03-.03.06-.06.1-.09l42.85-42.9h-5.68l-40.04,40.04c-7.85,7.85-7.87,20.57-.06,28.45l-2.87,2.81c-9.36-9.46-9.34-24.7.06-34.13l37.23-37.17h-5.68l-34.36,34.36c-11,10.98-11.03,28.8-.06,39.81l-2.87,2.87c-12.52-12.61-12.49-32.96.06-45.54l31.49-31.49h-5.68l-28.62,28.68c-14.14,14.1-14.19,37-.11,51.16l-2.81,2.87c-15.7-15.72-15.68-41.19.05-56.89h0s25.81-25.82,25.81-25.82h-5.68l-23,23c-17.23,17.3-17.18,45.29.11,62.52h0Z"/>
  </g>
  <g id="Layer_1_copy_2">
    <polygon points="67.44 96.16 64.4 96.16 64.4 93.07 73.92 93.07 73.92 96.16 70.82 96.16 70.82 111.19 67.44 111.19 67.44 96.16"/>
    <path d="M78.28,93.07h7.51l2.24,2.24v6.31l-1.89,1.78,2.01,7.74h-3.38l-1.89-7.4h-1.26v7.46h-3.38v-18.13h.06ZM83.9,101.21l.69-.8v-3.96l-.69-.8h-2.24v5.56h2.24Z"/>
    <path d="M94.86,93.07h4.88l2.75,18.13h-3.33l-.46-4.19h-2.93l-.52,4.19h-3.21l2.81-18.13ZM96.06,104.2h2.18l-1.09-9.01-1.09,9.01Z"/>
    <polygon points="106.33 108.61 108.34 108.61 108.34 95.65 106.33 95.65 106.33 93.07 113.73 93.07 113.73 95.65 111.78 95.65 111.78 108.61 113.73 108.61 113.73 111.19 106.33 111.19 106.33 108.61"/>
    <polygon points="118.43 93.07 121.87 93.07 121.87 108.21 125.72 108.21 125.72 111.19 118.43 111.19 118.43 93.07"/>
    <path d="M137.36,93.07h7.4l2.18,2.24v4.82l-1.78,1.78,1.78,1.78v5.28l-2.18,2.18h-7.4v-18.07ZM142.69,100.64l.86-.86v-3.21l-.75-.69h-2.06v4.82h1.95v-.06ZM142.81,108.5l.75-.69v-3.73l-.86-.8h-2.01v5.16h2.12v.06Z"/>
    <polygon points="151.99 93.07 155.31 93.07 155.31 108.21 159.27 108.21 159.27 111.19 151.99 111.19 151.99 93.07"/>
    <path d="M165.69,93.07h4.93l2.75,18.13h-3.33l-.52-4.19h-2.87l-.52,4.19h-3.21l2.75-18.13ZM167.01,104.2h2.18l-1.15-9.01-1.03,9.01Z"/>
    <polygon points="177.22 108.73 181.87 96.16 177.34 96.16 177.34 93.07 185.54 93.07 185.54 95.48 180.95 108.1 185.54 108.1 185.54 111.19 177.22 111.19 177.22 108.73"/>
    <polygon points="190.24 93.07 198.22 93.07 198.22 96.05 193.69 96.05 193.69 100.47 197.82 100.47 197.82 103.45 193.69 103.45 193.69 108.21 198.27 108.21 198.27 111.19 190.24 111.19 190.24 93.07"/>
    <path d="M203.21,93.07h7.51l2.24,2.24v6.31l-1.78,1.78,1.95,7.8h-3.38l-1.84-7.4h-1.32v7.4h-3.38v-18.13ZM208.83,101.21l.69-.8v-3.96l-.69-.8h-2.24v5.56h2.24Z"/>
    <polygon points="217.43 109.01 217.43 105.74 220.76 105.74 220.76 107.64 221.56 108.44 222.77 108.44 223.45 107.64 223.45 104.19 222.88 103.62 219.33 103.62 217.49 101.67 217.49 95.3 219.67 93.07 224.66 93.07 226.84 95.3 226.84 98.52 223.45 98.52 223.45 96.62 222.77 95.88 221.62 95.88 220.82 96.62 220.82 100.01 221.45 100.52 225 100.52 226.84 102.42 226.84 109.01 224.66 111.19 219.61 111.19 217.43 109.01"/>
    <path d="M43.69,23.61c0-10.5-5.68-14-16.75-14H7.1l8.66,8.66v63.27h10.73v-31.55h.57c10.84,0,16.46-3.33,16.75-13.31v-13.08h-.11ZM26.48,18.27h2.41c2.47,0,4.07.8,4.07,3.56v15.6c0,2.64-.75,3.96-4.53,3.96h-1.84v-23.12h-.11Z"/>
    <path d="M59.01,22.63c0-3.61,1.15-4.42,3.33-4.42s3.21.8,3.21,4.42v45.83c0,3.67-1.15,4.42-3.21,4.42-2.18,0-3.33-.75-3.33-4.42V22.63ZM62.22,81.48c6.65,0,14-2.7,14-12.05V21.71c0-9.41-7.4-12.1-14-12.1s-13.94,2.7-13.94,12.1v47.72c0,9.35,7.4,12.05,13.94,12.05Z"/>
    <path d="M190.19,22.29h.63l2.06,27.65h-5.1l2.41-27.65ZM186.75,58.54h7.06l2.29,22.94h10.78l-8.15-71.87h-16.12l-8.15,71.87h9.69l2.58-22.94Z"/>
    <path d="M264.93,67.54c0,4.65-1.32,5.33-4.07,5.33h-2.58V18.27h2.58c2.7,0,4.07.75,4.07,5.33v43.94ZM275.59,68.46V25.9c0-12.68-4.47-16.29-15.09-16.29h-12.96v71.87h15.2c8.43,0,12.85-6.19,12.85-13.02h0Z"/>
    <path d="M91.47,18.21h2.58c2.41,0,4.07.8,4.07,3.56v14.86c0,2.64-.8,4.65-4.59,4.65h-2.06v-23.06ZM91.64,49.88c4.99-.23,6.6,1.49,6.6,5.79v25.81h10.38s.23-7.74,0-28.51c-.06-6.48-4.13-7.46-4.13-7.46,4.7-2.01,4.13-4.36,4.13-9.69l-.06-13.94c0-9.29-5.05-12.27-13.65-12.27h-14.17v71.87h10.84v-31.6h.06Z"/>
    <polygon points="169.94 72.88 156.29 72.88 156.29 9.61 145.5 9.61 145.5 81.48 169.94 81.48 169.94 72.88"/>
    <polygon points="121.01 18.27 121.01 81.48 131.74 81.48 131.74 18.27 140.97 18.27 140.97 9.61 105.75 9.61 114.47 18.27 121.01 18.27"/>
    <polygon points="221.16 41.62 233.26 81.48 243.01 81.48 243.01 9.61 233.32 9.61 233.32 49.93 221.16 9.61 211.47 9.61 211.47 81.48 221.16 81.48 221.16 41.62"/>
  </g>
</svg>