<?xml version="1.0" encoding="UTF-8"?>
<svg xmlns="http://www.w3.org/2000/svg" xmlns:rdf="http://www.w3.org/1999/02/22-rdf-syntax-ns#" xmlns:dc="http://purl.org/dc/elements/1.1/" xmlns:cc="http://creativecommons.org/ns#" version="1.1" viewBox="0 0 115.06 119.02">
  <!-- Generator: Adobe Illustrator 30.3.0, SVG Export Plug-In . SVG Version: 2.1.3 Build 182)  -->
  <defs>
    <style>
      .st0 {
        fill: #fff;
      }

      .st1 {
        fill: #cf0a2c;
      }

      .st2 {
        display: none;
      }
    </style>
  </defs>
  <g id="Layer_1" class="st2">
    <path d="M97.34,31.2c-1.7-2.58-3.68-4.97-5.91-7.11-.94-.96-1.94-1.86-2.98-2.7L109.9,0h-62.35l-24.09,24.09-.06.06c-2.17,2.2-4.15,4.57-5.91,7.11-1.73,2.59-3.21,5.33-4.42,8.2-5.05,11.96-5.05,25.44,0,37.4,1.2,2.86,2.68,5.58,4.42,8.15,1.7,2.58,3.68,4.97,5.91,7.11.92.99,1.92,1.91,2.98,2.75l-21.39,21.39h62.35l24.15-24.21c4.38-4.35,7.87-9.51,10.27-15.2,5.05-11.96,5.05-25.44,0-37.4-1.16-2.91-2.64-5.68-4.42-8.26Z"/>
    <path class="st0" d="M88.68,26.9c-.92-.98-1.95-1.89-2.93-2.75l-26.16,26.27c1.34.38,2.56,1.09,3.56,2.06,3.1,3.17,3.1,8.24,0,11.41L14.63,112.42h5.74l45.6-45.66c4.71-4.71,4.76-12.32.11-17.09l2.81-2.81c6.26,6.28,6.24,16.44-.04,22.69h0s-.02.02-.02.02l-42.79,42.85h5.68l39.98-39.98c7.82-7.86,7.84-20.56.06-28.45l2.81-2.81c9.41,9.42,9.4,24.69-.03,34.1l-.03.03-37.11,37.11h5.68l34.3-34.3c11-10.98,11.03-28.8.06-39.81l2.87-2.87c12.53,12.61,12.48,32.99-.11,45.54l-31.43,31.43h5.74l28.56-28.62c14.14-14.1,14.18-36.99.08-51.14l-.03-.03,2.87-2.87c15.68,15.74,15.63,41.21-.11,56.89,0,0,0,0,0,0l-25.7,25.75h5.68l22.89-22.89c17.22-17.34,17.19-45.33-.06-62.64Z"/>
    <path class="st1" d="M26.33,89.42c.92.96,1.9,1.86,2.93,2.7l26.16-26.16c-1.35-.36-2.58-1.07-3.56-2.06-3.15-3.15-3.16-8.26,0-11.41h0S100.38,3.9,100.38,3.9h-5.68l-45.72,45.72c-4.72,4.71-4.74,12.35-.06,17.09l-2.87,2.81c-6.24-6.25-6.23-16.38.02-22.62.03-.03.06-.06.1-.09L89.02,3.9h-5.68l-40.04,40.04c-7.85,7.85-7.87,20.57-.06,28.45l-2.87,2.81c-9.36-9.46-9.34-24.7.06-34.13L77.66,3.9h-5.68l-34.36,34.36c-11,10.98-11.03,28.8-.06,39.81l-2.87,2.87c-12.52-12.61-12.49-32.96.06-45.54L66.25,3.9h-5.68l-28.62,28.68c-14.14,14.1-14.19,37-.11,51.16l-2.81,2.87c-15.7-15.72-15.68-41.19.05-56.89h0S54.89,3.9,54.89,3.9h-5.68l-23,23c-17.23,17.3-17.18,45.29.11,62.52h0Z"/>
    <polygon points="-20.71 213.89 -23.75 213.89 -23.75 210.79 -14.23 210.79 -14.23 213.89 -17.32 213.89 -17.32 228.92 -20.71 228.92 -20.71 213.89"/>
    <path d="M-9.87,210.79H-2.35l2.24,2.24v6.31l-1.89,1.78,2.01,7.74h-3.38l-1.89-7.4h-1.26v7.46h-3.38v-18.13h.06ZM-4.24,218.94l.69-.8v-3.96l-.69-.8h-2.24v5.56h2.24Z"/>
    <path d="M6.71,210.79h4.88l2.75,18.13h-3.33l-.46-4.19h-2.93l-.52,4.19h-3.21l2.81-18.13ZM7.92,221.92h2.18l-1.09-9.01-1.09,9.01Z"/>
    <polygon points="18.18 226.34 20.19 226.34 20.19 213.38 18.18 213.38 18.18 210.79 25.58 210.79 25.58 213.38 23.63 213.38 23.63 226.34 25.58 226.34 25.58 228.92 18.18 228.92 18.18 226.34"/>
    <polygon points="30.29 210.79 33.73 210.79 33.73 225.94 37.57 225.94 37.57 228.92 30.29 228.92 30.29 210.79"/>
    <path d="M49.21,210.79h7.4l2.18,2.24v4.82l-1.78,1.78,1.78,1.78v5.28l-2.18,2.18h-7.4v-18.07ZM54.55,218.37l.86-.86v-3.21l-.75-.69h-2.06v4.82h1.95v-.06ZM54.66,226.22l.75-.69v-3.73l-.86-.8h-2.01v5.16h2.12v.06Z"/>
    <polygon points="63.84 210.79 67.17 210.79 67.17 225.94 71.13 225.94 71.13 228.92 63.84 228.92 63.84 210.79"/>
    <path d="M77.55,210.79h4.93l2.75,18.13h-3.33l-.52-4.19h-2.87l-.52,4.19h-3.21l2.75-18.13ZM78.87,221.92h2.18l-1.15-9.01-1.03,9.01Z"/>
    <polygon points="89.08 226.45 93.72 213.89 89.19 213.89 89.19 210.79 97.4 210.79 97.4 213.2 92.81 225.82 97.4 225.82 97.4 228.92 89.08 228.92 89.08 226.45"/>
    <polygon points="102.1 210.79 110.07 210.79 110.07 213.78 105.54 213.78 105.54 218.19 109.67 218.19 109.67 221.18 105.54 221.18 105.54 225.94 110.13 225.94 110.13 228.92 102.1 228.92 102.1 210.79"/>
    <path d="M115.06,210.79h7.51l2.24,2.24v6.31l-1.78,1.78,1.95,7.8h-3.38l-1.84-7.4h-1.32v7.4h-3.38v-18.13ZM120.68,218.94l.69-.8v-3.96l-.69-.8h-2.24v5.56h2.24Z"/>
    <polygon points="129.29 226.74 129.29 223.47 132.61 223.47 132.61 225.36 133.42 226.17 134.62 226.17 135.31 225.36 135.31 221.92 134.74 221.35 131.18 221.35 129.34 219.4 129.34 213.03 131.52 210.79 136.51 210.79 138.69 213.03 138.69 216.24 135.31 216.24 135.31 214.35 134.62 213.6 133.47 213.6 132.67 214.35 132.67 217.74 133.3 218.25 136.86 218.25 138.69 220.14 138.69 226.74 136.51 228.92 131.47 228.92 129.29 226.74"/>
    <path d="M-44.45,141.33c0-10.5-5.68-14-16.75-14h-19.85l8.66,8.66v63.27h10.73v-31.55h.57c10.84,0,16.46-3.33,16.75-13.31v-13.08h-.11ZM-61.66,136h2.41c2.47,0,4.07.8,4.07,3.56v15.6c0,2.64-.75,3.96-4.53,3.96h-1.84v-23.12h-.11Z"/>
    <path d="M-29.14,140.36c0-3.61,1.15-4.42,3.33-4.42s3.21.8,3.21,4.42v45.83c0,3.67-1.15,4.42-3.21,4.42-2.18,0-3.33-.75-3.33-4.42v-45.83ZM-25.93,199.21c6.65,0,14-2.7,14-12.05v-47.72c0-9.41-7.4-12.1-14-12.1s-13.94,2.7-13.94,12.1v47.72c0,9.35,7.4,12.05,13.94,12.05Z"/>
    <path d="M102.04,140.01h.63l2.06,27.65h-5.1l2.41-27.65ZM98.6,176.26h7.06l2.29,22.94h10.78l-8.15-71.87h-16.12l-8.15,71.87h9.69l2.58-22.94Z"/>
    <path d="M176.78,185.27c0,4.65-1.32,5.33-4.07,5.33h-2.58v-54.61h2.58c2.7,0,4.07.75,4.07,5.33v43.94ZM187.45,186.19v-42.56c0-12.68-4.47-16.29-15.09-16.29h-12.96v71.87h15.2c8.43,0,12.85-6.19,12.85-13.02h0Z"/>
    <path d="M3.33,135.94h2.58c2.41,0,4.07.8,4.07,3.56v14.86c0,2.64-.8,4.65-4.59,4.65h-2.06v-23.06ZM3.5,167.6c4.99-.23,6.6,1.49,6.6,5.79v25.81h10.38s.23-7.74,0-28.51c-.06-6.48-4.13-7.46-4.13-7.46,4.7-2.01,4.13-4.36,4.13-9.69l-.06-13.94c0-9.29-5.05-12.27-13.65-12.27H-7.4v71.87H3.44v-31.6h.06Z"/>
    <polygon points="81.79 190.6 68.14 190.6 68.14 127.34 57.36 127.34 57.36 199.21 81.79 199.21 81.79 190.6"/>
    <polygon points="32.87 136 32.87 199.21 43.59 199.21 43.59 136 52.83 136 52.83 127.34 17.61 127.34 26.33 136 32.87 136"/>
    <polygon points="133.02 159.34 145.12 199.21 154.87 199.21 154.87 127.34 145.18 127.34 145.18 167.66 133.02 127.34 123.32 127.34 123.32 199.21 133.02 199.21 133.02 159.34"/>
  </g>
  <g id="Layer_1_copy">
    <path d="M97.34,32.2c-1.7-2.58-3.68-4.97-5.91-7.11-.94-.96-1.94-1.86-2.98-2.7L109.9,1h-62.35l-24.09,24.09-.06.06c-2.17,2.2-4.15,4.57-5.91,7.11-1.73,2.59-3.21,5.33-4.42,8.2-5.05,11.96-5.05,25.44,0,37.4,1.2,2.86,2.68,5.58,4.42,8.15,1.7,2.58,3.68,4.97,5.91,7.11.92.99,1.92,1.91,2.98,2.75l-21.39,21.39h62.35l24.15-24.21c4.38-4.35,7.87-9.51,10.27-15.2,5.05-11.96,5.05-25.44,0-37.4-1.16-2.91-2.64-5.68-4.42-8.26Z"/>
    <path class="st0" d="M88.68,27.9c-.92-.98-1.95-1.89-2.93-2.75l-26.16,26.27c1.34.38,2.56,1.09,3.56,2.06,3.1,3.17,3.1,8.24,0,11.41L14.63,113.42h5.74l45.6-45.66c4.71-4.71,4.76-12.32.11-17.09l2.81-2.81c6.26,6.28,6.24,16.44-.04,22.69h0s-.02.02-.02.02l-42.79,42.85h5.68l39.98-39.98c7.82-7.86,7.84-20.56.06-28.45l2.81-2.81c9.41,9.42,9.4,24.69-.03,34.1l-.03.03-37.11,37.11h5.68l34.3-34.3c11-10.98,11.03-28.8.06-39.81l2.87-2.87c12.53,12.61,12.48,32.99-.11,45.54l-31.43,31.43h5.74l28.56-28.62c14.14-14.1,14.18-36.99.08-51.14l-.03-.03,2.87-2.87c15.68,15.74,15.63,41.21-.11,56.89,0,0,0,0,0,0l-25.7,25.75h5.68l22.89-22.89c17.22-17.34,17.19-45.33-.06-62.64Z"/>
    <path class="st1" d="M26.33,90.42c.92.96,1.9,1.86,2.93,2.7l26.16-26.16c-1.35-.36-2.58-1.07-3.56-2.06-3.15-3.15-3.16-8.26,0-11.41h0S100.38,4.9,100.38,4.9h-5.68l-45.72,45.72c-4.72,4.71-4.74,12.35-.06,17.09l-2.87,2.81c-6.24-6.25-6.23-16.38.02-22.62.03-.03.06-.06.1-.09L89.02,4.9h-5.68l-40.04,40.04c-7.85,7.85-7.87,20.57-.06,28.45l-2.87,2.81c-9.36-9.46-9.34-24.7.06-34.13L77.66,4.9h-5.68l-34.36,34.36c-11,10.98-11.03,28.8-.06,39.81l-2.87,2.87c-12.52-12.61-12.49-32.96.06-45.54l31.49-31.49h-5.68l-28.62,28.68c-14.14,14.1-14.19,37-.11,51.16l-2.81,2.87c-15.7-15.72-15.68-41.19.05-56.89h0S54.89,4.9,54.89,4.9h-5.68l-23,23c-17.23,17.3-17.18,45.29.11,62.52h0Z"/>
  </g>
  <g id="Layer_1_copy_2" class="st2">
    <path d="M97.34,31.2c-1.7-2.58-3.68-4.97-5.91-7.11-.94-.96-1.94-1.86-2.98-2.7L109.9,0h-62.35l-24.09,24.09-.06.06c-2.17,2.2-4.15,4.57-5.91,7.11-1.73,2.59-3.21,5.33-4.42,8.2-5.05,11.96-5.05,25.44,0,37.4,1.2,2.86,2.68,5.58,4.42,8.15,1.7,2.58,3.68,4.97,5.91,7.11.92.99,1.92,1.91,2.98,2.75l-21.39,21.39h62.35l24.15-24.21c4.38-4.35,7.87-9.51,10.27-15.2,5.05-11.96,5.05-25.44,0-37.4-1.16-2.91-2.64-5.68-4.42-8.26Z"/>
    <path class="st0" d="M88.68,26.9c-.92-.98-1.95-1.89-2.93-2.75l-26.16,26.27c1.34.38,2.56,1.09,3.56,2.06,3.1,3.17,3.1,8.24,0,11.41L14.63,112.42h5.74l45.6-45.66c4.71-4.71,4.76-12.32.11-17.09l2.81-2.81c6.26,6.28,6.24,16.44-.04,22.69h0s-.02.02-.02.02l-42.79,42.85h5.68l39.98-39.98c7.82-7.86,7.84-20.56.06-28.45l2.81-2.81c9.41,9.42,9.4,24.69-.03,34.1l-.03.03-37.11,37.11h5.68l34.3-34.3c11-10.98,11.03-28.8.06-39.81l2.87-2.87c12.53,12.61,12.48,32.99-.11,45.54l-31.43,31.43h5.74l28.56-28.62c14.14-14.1,14.18-36.99.08-51.14l-.03-.03,2.87-2.87c15.68,15.74,15.63,41.21-.11,56.89,0,0,0,0,0,0l-25.7,25.75h5.68l22.89-22.89c17.22-17.34,17.19-45.33-.06-62.64Z"/>
    <path class="st1" d="M26.33,89.42c.92.96,1.9,1.86,2.93,2.7l26.16-26.16c-1.35-.36-2.58-1.07-3.56-2.06-3.15-3.15-3.16-8.26,0-11.41h0S100.38,3.9,100.38,3.9h-5.68l-45.72,45.72c-4.72,4.71-4.74,12.35-.06,17.09l-2.87,2.81c-6.24-6.25-6.23-16.38.02-22.62.03-.03.06-.06.1-.09L89.02,3.9h-5.68l-40.04,40.04c-7.85,7.85-7.87,20.57-.06,28.45l-2.87,2.81c-9.36-9.46-9.34-24.7.06-34.13L77.66,3.9h-5.68l-34.36,34.36c-11,10.98-11.03,28.8-.06,39.81l-2.87,2.87c-12.52-12.61-12.49-32.96.06-45.54L66.25,3.9h-5.68l-28.62,28.68c-14.14,14.1-14.19,37-.11,51.16l-2.81,2.87c-15.7-15.72-15.68-41.19.05-56.89h0S54.89,3.9,54.89,3.9h-5.68l-23,23c-17.23,17.3-17.18,45.29.11,62.52h0Z"/>
    <polygon points="-20.71 213.89 -23.75 213.89 -23.75 210.79 -14.23 210.79 -14.23 213.89 -17.32 213.89 -17.32 228.92 -20.71 228.92 -20.71 213.89"/>
    <path d="M-9.87,210.79H-2.35l2.24,2.24v6.31l-1.89,1.78,2.01,7.74h-3.38l-1.89-7.4h-1.26v7.46h-3.38v-18.13h.06ZM-4.24,218.94l.69-.8v-3.96l-.69-.8h-2.24v5.56h2.24Z"/>
    <path d="M6.71,210.79h4.88l2.75,18.13h-3.33l-.46-4.19h-2.93l-.52,4.19h-3.21l2.81-18.13ZM7.92,221.92h2.18l-1.09-9.01-1.09,9.01Z"/>
    <polygon points="18.18 226.34 20.19 226.34 20.19 213.38 18.18 213.38 18.18 210.79 25.58 210.79 25.58 213.38 23.63 213.38 23.63 226.34 25.58 226.34 25.58 228.92 18.18 228.92 18.18 226.34"/>
    <polygon points="30.29 210.79 33.73 210.79 33.73 225.94 37.57 225.94 37.57 228.92 30.29 228.92 30.29 210.79"/>
    <path d="M49.21,210.79h7.4l2.18,2.24v4.82l-1.78,1.78,1.78,1.78v5.28l-2.18,2.18h-7.4v-18.07ZM54.55,218.37l.86-.86v-3.21l-.75-.69h-2.06v4.82h1.95v-.06ZM54.66,226.22l.75-.69v-3.73l-.86-.8h-2.01v5.16h2.12v.06Z"/>
    <polygon points="63.84 210.79 67.17 210.79 67.17 225.94 71.13 225.94 71.13 228.92 63.84 228.92 63.84 210.79"/>
    <path d="M77.55,210.79h4.93l2.75,18.13h-3.33l-.52-4.19h-2.87l-.52,4.19h-3.21l2.75-18.13ZM78.87,221.92h2.18l-1.15-9.01-1.03,9.01Z"/>
    <polygon points="89.08 226.45 93.72 213.89 89.19 213.89 89.19 210.79 97.4 210.79 97.4 213.2 92.81 225.82 97.4 225.82 97.4 228.92 89.08 228.92 89.08 226.45"/>
    <polygon points="102.1 210.79 110.07 210.79 110.07 213.78 105.54 213.78 105.54 218.19 109.67 218.19 109.67 221.18 105.54 221.18 105.54 225.94 110.13 225.94 110.13 228.92 102.1 228.92 102.1 210.79"/>
    <path d="M115.06,210.79h7.51l2.24,2.24v6.31l-1.78,1.78,1.95,7.8h-3.38l-1.84-7.4h-1.32v7.4h-3.38v-18.13ZM120.68,218.94l.69-.8v-3.96l-.69-.8h-2.24v5.56h2.24Z"/>
    <polygon points="129.29 226.74 129.29 223.47 132.61 223.47 132.61 225.36 133.42 226.17 134.62 226.17 135.31 225.36 135.31 221.92 134.74 221.35 131.18 221.35 129.34 219.4 129.34 213.03 131.52 210.79 136.51 210.79 138.69 213.03 138.69 216.24 135.31 216.24 135.31 214.35 134.62 213.6 133.47 213.6 132.67 214.35 132.67 217.74 133.3 218.25 136.86 218.25 138.69 220.14 138.69 226.74 136.51 228.92 131.47 228.92 129.29 226.74"/>
    <path d="M-44.45,141.33c0-10.5-5.68-14-16.75-14h-19.85l8.66,8.66v63.27h10.73v-31.55h.57c10.84,0,16.46-3.33,16.75-13.31v-13.08h-.11ZM-61.66,136h2.41c2.47,0,4.07.8,4.07,3.56v15.6c0,2.64-.75,3.96-4.53,3.96h-1.84v-23.12h-.11Z"/>
    <path d="M-29.14,140.36c0-3.61,1.15-4.42,3.33-4.42s3.21.8,3.21,4.42v45.83c0,3.67-1.15,4.42-3.21,4.42-2.18,0-3.33-.75-3.33-4.42v-45.83ZM-25.93,199.21c6.65,0,14-2.7,14-12.05v-47.72c0-9.41-7.4-12.1-14-12.1s-13.94,2.7-13.94,12.1v47.72c0,9.35,7.4,12.05,13.94,12.05Z"/>
    <path d="M102.04,140.01h.63l2.06,27.65h-5.1l2.41-27.65ZM98.6,176.26h7.06l2.29,22.94h10.78l-8.15-71.87h-16.12l-8.15,71.87h9.69l2.58-22.94Z"/>
    <path d="M176.78,185.27c0,4.65-1.32,5.33-4.07,5.33h-2.58v-54.61h2.58c2.7,0,4.07.75,4.07,5.33v43.94ZM187.45,186.19v-42.56c0-12.68-4.47-16.29-15.09-16.29h-12.96v71.87h15.2c8.43,0,12.85-6.19,12.85-13.02h0Z"/>
    <path d="M3.33,135.94h2.58c2.41,0,4.07.8,4.07,3.56v14.86c0,2.64-.8,4.65-4.59,4.65h-2.06v-23.06ZM3.5,167.6c4.99-.23,6.6,1.49,6.6,5.79v25.81h10.38s.23-7.74,0-28.51c-.06-6.48-4.13-7.46-4.13-7.46,4.7-2.01,4.13-4.36,4.13-9.69l-.06-13.94c0-9.29-5.05-12.27-13.65-12.27H-7.4v71.87H3.44v-31.6h.06Z"/>
    <polygon points="81.79 190.6 68.14 190.6 68.14 127.34 57.36 127.34 57.36 199.21 81.79 199.21 81.79 190.6"/>
    <polygon points="32.87 136 32.87 199.21 43.59 199.21 43.59 136 52.83 136 52.83 127.34 17.61 127.34 26.33 136 32.87 136"/>
    <polygon points="133.02 159.34 145.12 199.21 154.87 199.21 154.87 127.34 145.18 127.34 145.18 167.66 133.02 127.34 123.32 127.34 123.32 199.21 133.02 199.21 133.02 159.34"/>
  </g>
</svg>