<?xml version="1.0" encoding="UTF-8" standalone="no"?>
<!-- Created with Inkscape (http://www.inkscape.org/) -->

<svg
   xmlns:dc="http://purl.org/dc/elements/1.1/"
   xmlns:cc="http://creativecommons.org/ns#"
   xmlns:rdf="http://www.w3.org/1999/02/22-rdf-syntax-ns#"
   xmlns:svg="http://www.w3.org/2000/svg"
   xmlns="http://www.w3.org/2000/svg"
   xmlns:sodipodi="http://sodipodi.sourceforge.net/DTD/sodipodi-0.dtd"
   xmlns:inkscape="http://www.inkscape.org/namespaces/inkscape"
   version="1.1"
   id="svg2380"
   xml:space="preserve"
   width="524.24908"
   height="188.69746"
   viewBox="0 0 524.24908 188.69746"
   sodipodi:docname="d backs wordmark logo teal.svg"
   inkscape:version="0.92.5 (2060ec1f9f, 2020-04-08)"><metadata
     id="metadata2386"><rdf:RDF><cc:Work
         rdf:about=""><dc:format>image/svg+xml</dc:format><dc:type
           rdf:resource="http://purl.org/dc/dcmitype/StillImage" /><dc:title></dc:title></cc:Work></rdf:RDF></metadata><defs
     id="defs2384"><clipPath
       clipPathUnits="userSpaceOnUse"
       id="clipPath2398"><path
         d="M 0,648 H 432 V 0 H 0 Z"
         id="path2396"
         inkscape:connector-curvature="0" /></clipPath><clipPath
       clipPathUnits="userSpaceOnUse"
       id="clipPath2482"><path
         d="m 28.8,583.277 h 57.6 v 39.445 H 28.8 Z"
         id="path2480"
         inkscape:connector-curvature="0" /></clipPath><clipPath
       clipPathUnits="userSpaceOnUse"
       id="clipPath2494"><path
         d="m 28.8,574.2 h 57.6 v 57.6 H 28.8 Z"
         id="path2492"
         inkscape:connector-curvature="0" /></clipPath><clipPath
       clipPathUnits="userSpaceOnUse"
       id="clipPath3154"><path
         d="m 319.085,480.362 h 71.75 v 89.75 h -71.75 z"
         id="path3152"
         inkscape:connector-curvature="0" /></clipPath><clipPath
       clipPathUnits="userSpaceOnUse"
       id="clipPath3328"><path
         d="m 28.925,480.138 h 71.75 v 89.75 h -71.75 z"
         id="path3326"
         inkscape:connector-curvature="0" /></clipPath><clipPath
       clipPathUnits="userSpaceOnUse"
       id="clipPath3344"><path
         d="m 125.611,480.362 h 71.75 v 89.75 h -71.75 z"
         id="path3342"
         inkscape:connector-curvature="0" /></clipPath><clipPath
       clipPathUnits="userSpaceOnUse"
       id="clipPath3360"><path
         d="m 222.361,480.362 h 71.75 v 89.75 h -71.75 z"
         id="path3358"
         inkscape:connector-curvature="0" /></clipPath></defs><sodipodi:namedview
     pagecolor="#ffffff"
     bordercolor="#666666"
     borderopacity="1"
     objecttolerance="10"
     gridtolerance="10"
     guidetolerance="10"
     inkscape:pageopacity="0"
     inkscape:pageshadow="2"
     inkscape:window-width="1920"
     inkscape:window-height="1009"
     id="namedview2382"
     showgrid="false"
     inkscape:pagecheckerboard="true"
     fit-margin-top="0"
     fit-margin-left="0"
     fit-margin-right="0"
     fit-margin-bottom="0"
     inkscape:zoom="0.70710678"
     inkscape:cx="874.98127"
     inkscape:cy="4.174092"
     inkscape:window-x="1912"
     inkscape:window-y="70"
     inkscape:window-maximized="1"
     inkscape:current-layer="g2388" /><g
     id="g2388"
     inkscape:groupmode="layer"
     inkscape:label="2020 Arizona Diamondbacks Media Guide"
     transform="matrix(1.3333333,0,0,-1.3333333,2861.6781,1198.7356)"><g
       id="g5140"
       transform="matrix(0.5028596,0,0,-0.49854922,-2161.3988,964.35358)"><g
         id="g5032"
         style="fill:none;stroke-width:2"><path
           id="path4998"
           d="m 378.51,261.78 a 0.48,0.47 88.9 0 1 0.49,0.48 L 378.99,356 q 0,0.44 0.45,0.44 l 47.38,-0.07 q 0.43,0 0.43,-0.44 V 132.5 a 0.5,0.5 0 0 0 -0.5,-0.5 q -39.05,-0.18 -78.06,1.63 a 3.74,3.74 0 0 0 -1.92,0.64 c -12.24,8.31 -23.57,20 -28.93,33.86 -4.77,12.36 -4.91,22.26 -5.27,37.96 -0.78,33.67 0.01,69.06 -0.15,111.1 q -0.09,23.6 0.11,32.74 c 0.06,2.52 -0.59,6.13 -0.19,9.24 q 0.07,0.55 0.62,0.51 21.63,-1.45 43.3,-2.36 0.88,-0.03 3.71,0.18 0.53,0.04 0.53,-0.49 V 263 q 0,-0.49 0.5,-0.51 l 17.51,-0.71 m 107.24,55.67 a 0.27,0.26 -88.9 0 1 -0.25,-0.27 V 173.45 q 0,-0.56 0.55,-0.53 l 17.48,0.88 q 0.47,0.02 0.47,0.49 v 17.41 a 1.42,1.41 15.2 0 0 0.7,1.22 l 47.01,27.59 a 0.36,0.36 0 0 0 0.54,-0.31 v -81.95 q 0,-1.15 -1.14,-1.23 c -28.28,-2.04 -56.52,-3.61 -84.71,-4.44 q -5.97,-0.18 -10.01,1.06 -19.14,5.85 -19.14,28.36 -0.02,83.72 0.19,167.43 c 0.04,17.14 12.95,26.63 28.97,27.24 l 32.36,1.24 c 7.21,0.29 16.61,1.07 24.92,1.27 q 8.29,0.2 12.9,-1.38 c 12.07,-4.13 15.68,-13.78 15.68,-25.79 q 0,-31.96 -0.03,-64.03 0,-0.7 -0.64,-0.41 l -46.88,21.4 a 1.23,1.23 0 0 0 -0.72,1.12 v 27.62 q 0,0.45 -0.46,0.44 l -17.79,-0.7 m 187.8,-58.7 a 0.67,0.67 0 0 1 0.19,-1.21 c 12.21,-3.27 12.31,-13.47 12.44,-23.8 q 0.49,-39.89 0.27,-79.85 0,-0.55 -0.55,-0.63 l -46.52,-6.9 q -0.61,-0.09 -0.61,0.53 L 638.49,227 q 0,0.59 -0.53,0.87 l -4.39,2.35 q -0.47,0.26 -1.01,0.19 l -10.4,-1.31 q -0.41,-0.05 -0.41,-0.46 v -84.03 q 0,-0.64 -0.64,-0.71 l -63.44,-6.51 a 0.48,0.48 0 0 0 -0.49,0.68 q 7.69,16.06 15.32,32.07 1,2.11 1,4.44 -0.01,94.01 0.01,188.03 0,0.45 0.44,0.5 l 46.91,5.09 a 0.81,0.81 0 0 0 0.89,-0.81 v -93.12 q 0,-0.64 0.63,-0.57 3.7,0.37 7.41,0.81 c 3.81,0.46 6.69,3.14 9.56,5.44 q 0.4,0.31 0.4,0.82 0,22.12 0.01,44.23 c 0,18.91 -0.7,43.53 -10.06,60.19 -4.28,7.63 -10.74,11.71 -17.33,16.63 a 0.34,0.33 -43 0 0 -0.02,0.52 l 12.32,10.88 a 2.56,2.55 56.2 0 0 2.5,0.5 c 35.35,-11.79 57.94,-38.45 60.29,-76.25 q 0.69,-11.12 0.08,-52.44 c -0.17,-11.4 -4.26,-20 -13.99,-26.28 M 287.84,243.89 c 9.65,-7.34 12.92,-10.94 12.97,-24.39 q 0.09,-27.48 -0.24,-54.96 -0.09,-8.09 -1.59,-11.88 c -3.92,-9.89 -15.26,-15.11 -25.48,-14.16 q -50.42,4.69 -101.37,12.36 -0.78,0.12 -0.41,0.81 7.61,14.19 15.49,28.76 1.02,1.88 1.02,4.01 0.04,94.49 0.01,188.38 0,0.96 0.93,0.72 17.32,-4.61 34.73,-8.51 5.35,-1.2 10.94,-1.36 15.63,-0.45 31.26,-0.72 c 14.36,-0.25 29.55,-4.26 34.65,-19.36 q 1.51,-4.49 1.51,-15.32 -0.02,-29.99 0,-59.99 c 0,-11.19 -3.68,-19.14 -14.34,-23.75 q -0.59,-0.26 -0.08,-0.64 m 474.39,108.06 -16.27,-3.41 q -0.46,-0.09 -0.46,-0.57 v -27.56 q 0,-0.86 -0.7,-1.36 l -46.46,-33.13 a 0.38,0.37 -72.4 0 0 -0.59,0.31 q -0.01,29.79 0.01,59.74 0,12.24 1.52,16.91 c 3.01,9.32 13.69,19.19 22.95,20.93 q 34.56,6.49 61.94,12.79 c 14.92,3.43 26.82,-4.81 26.83,-20.1 q 0.03,-24.91 -0.03,-49.83 c -0.03,-14.36 -6.28,-24.4 -14.79,-35.32 q -24.9,-31.9 -50.2,-63.49 -0.29,-0.36 -0.29,-0.82 l 0.2,-22.17 a 0.63,0.63 0 0 1 0.75,-0.62 l 16.31,3.34 q 0.52,0.11 0.53,0.63 l 0.28,17.78 q 0.01,0.47 0.38,0.75 l 46.38,35.18 A 0.3,0.29 19 0 0 811,261.7 v -82.2 a 1.07,1.06 -83.5 0 0 -0.82,-1.04 q -39.23,-9.17 -78.32,-16.96 -11.59,-2.31 -16.21,-1.62 c -10.09,1.5 -17.92,10.16 -17.91,20.62 q 0.03,20.46 0,40.95 c -0.01,9.24 2.7,17.22 8.21,24.11 q 28.44,35.59 56.54,71.49 0.26,0.33 0.26,0.75 v 33.73 q 0,0.53 -0.52,0.42 M 47.09,208.34 q 0.41,0.78 0.41,2.91 -0.01,94.22 0,188.45 0,0.52 0.5,0.35 17.46,-6.17 35.1,-11.8 c 6.5,-2.08 13.93,-1.87 20.71,-2.41 q 10.07,-0.79 16.05,-2.74 c 18.06,-5.89 31.77,-19.83 36.79,-38.34 q 2.05,-7.57 2.06,-14.01 0.1,-62.75 0.01,-125.49 -0.01,-8.16 -0.52,-12 c -3.17,-23.74 -21.44,-36.56 -45.24,-32.17 q -38.99,7.2 -77.48,16.72 c -0.94,0.23 -2.69,0.44 -3.98,0.79 q -0.59,0.16 -0.29,0.7 8.12,14.45 15.88,29.04"
           inkscape:connector-curvature="0"
           style="vector-effect:non-scaling-stroke;stroke:#eee7d6" /><path
           id="path5000"
           d="m 186.008,255.464 a 0.41,0.41 0 0 0 -0.043,-0.578 l -12.297,-10.577 a 0.41,0.41 0 0 0 -0.579,0.043 l -12.337,14.344 a 0.41,0.41 0 0 0 0.043,0.578 l 12.297,10.577 a 0.41,0.41 0 0 0 0.578,-0.043 l 12.338,-14.344"
           inkscape:connector-curvature="0"
           style="vector-effect:non-scaling-stroke;stroke:#d68c97" /><path
           id="path5002"
           d="m 356.93,257.87 26.02,-0.7 q 0.55,-0.02 0.55,0.53 v 93.73 q 0,0.43 0.43,0.43 l 38.08,-0.13 q 0.74,0 0.74,-0.74 V 136.95 a 0.48,0.47 90 0 0 -0.47,-0.48 q -36.33,-0.01 -72.62,1.72 -0.51,0.03 -0.93,0.32 c -17.5,12.23 -28.93,27.64 -31,49.08 -0.67,6.98 -0.96,20.03 -0.97,28.66 q -0.03,69.06 0,137.83 a 0.67,0.66 88.4 0 0 0.7,0.67 l 37.94,-2 q 0.85,-0.04 0.85,-0.9 v -93.28 q 0,-0.68 0.68,-0.7 m 151.56,-87.78 0.08,19.27 q 0,0.53 0.47,0.8 l 38.03,22.28 q 0.43,0.25 0.43,-0.24 v -70.42 q 0,-0.48 -0.47,-0.51 -38.34,-2.62 -76.36,-4.03 -9.58,-0.35 -13.71,1.04 c -8.55,2.9 -15,10.24 -14.99,19.72 Q 442,242.96 442,327.92 c 0,14.62 9.17,23.56 23.83,24.05 q 25.51,0.85 51,2.33 c 11.04,0.64 23.98,1.31 29.27,-11.04 q 1.39,-3.23 1.39,-9.73 0.04,-29.1 0,-58.22 0,-0.61 -0.56,-0.36 l -37.76,17.22 q -0.51,0.23 -0.52,0.8 l -0.21,29.57 q -0.01,0.47 -0.48,0.45 l -26.35,-1.19 a 0.38,0.38 0 0 1 -0.36,-0.38 V 168.71 q 0,-0.54 0.54,-0.52 l 26.05,1.22 q 0.64,0.03 0.65,0.68"
           inkscape:connector-curvature="0"
           style="vector-effect:non-scaling-stroke;stroke:#c5746d" /><path
           id="path5004"
           d="m 340.17,255.07 a 0.34,0.33 -31.9 0 1 0.15,-0.63 l 46.33,-1.62 a 0.83,0.82 88.6 0 1 0.85,0.82 l 0.01,93.49 q 0,0.62 0.62,0.62 h 30.31 a 0.31,0.31 0 0 0 0.31,-0.31 V 141.23 q 0,-0.77 -0.77,-0.75 l -66.88,1.56 q -0.51,0.01 -0.91,0.31 c -19.86,14.2 -29.03,30.77 -28.97,55.65 q 0.15,56.92 -0.14,113.83 c -0.06,10.41 0.33,24.75 0.12,37.32 q -0.02,1.18 1.16,1.12 l 28.96,-1.4 q 0.56,-0.03 0.61,-0.59 0.29,-4.01 0.29,-8.04 0.05,-39.15 0.03,-78.44 0,-0.53 -0.47,-0.77 l -11.61,-5.96 m 124.86,-91.05 a 0.29,0.28 -28.4 0 1 0.16,-0.53 l 46.99,1.85 q 0.57,0.02 0.57,0.59 v 21.28 q 0,0.5 0.44,0.76 l 29.92,17.52 a 0.43,0.43 0 0 0 0.64,-0.37 v -59.16 q 0,-0.63 -0.62,-0.69 c -28.65,-2.99 -55.05,-2.58 -75.77,-4.08 -11.81,-0.86 -21.12,5.67 -21.12,18.14 q 0.02,84.98 0,169.98 c 0,14.79 11.75,18.72 24.26,18.89 16.85,0.24 35.77,1.85 55.85,2.28 10.74,0.22 17.46,-6.5 17.45,-17.47 q -0.03,-25.73 -0.07,-51.44 a 0.35,0.35 0 0 0 -0.49,-0.32 l -30.19,13.74 a 0.53,0.53 0 0 0 -0.31,0.48 l 0.02,31.35 a 0.49,0.48 0.6 0 1 -0.51,0.49 l -34.23,-1.48 A 1.07,1.06 -88.9 0 1 477,324.76 V 171.54 q 0,-0.53 -0.45,-0.79 l -11.52,-6.73"
           inkscape:connector-curvature="0"
           style="vector-effect:non-scaling-stroke;stroke:#651b26" /><path
           id="path5006"
           d="m 664.3,257.24 a 0.34,0.34 0 0 1 0.07,-0.58 c 11.33,-5.11 17.28,-5.71 17.32,-20.41 q 0.09,-39.26 0.06,-78.54 0,-0.48 -0.48,-0.55 l -37.99,-5.65 q -0.53,-0.08 -0.53,0.46 v 78.27 q 0,0.51 -0.45,0.77 l -7.01,4.05 q -0.48,0.28 -1.03,0.21 l -16.56,-2.13 a 0.77,0.76 -86.6 0 1 -0.67,-0.76 l -0.04,-83.48 q 0,-0.82 -0.81,-0.91 l -51.12,-5.36 q -0.7,-0.08 -0.41,0.57 6.1,13.25 12.59,26.37 0.99,2 0.99,4.24 0.04,92.32 0.01,184.68 0,0.48 0.48,0.53 l 37.83,4.12 q 0.41,0.05 0.41,-0.36 l 0.16,-93.3 q 0.01,-1.15 1.15,-1.01 l 15.24,1.97 q 0.51,0.07 0.93,0.37 l 9.61,6.99 q 0.42,0.3 0.43,0.83 0.08,23.62 -0.01,47.24 c -0.09,19.71 -1.22,42.11 -9.93,60.2 -3.41,7.09 -8.29,12.05 -14.7,16.24 q -0.48,0.32 -0.06,0.7 l 6.2,5.54 q 0.41,0.36 0.92,0.18 49.44,-17.75 55.65,-67.99 0.8,-6.48 0.74,-19.97 -0.08,-17.03 -0.05,-34.06 c 0.03,-16.7 -7.05,-20.43 -18.94,-29.47 M 278.85,244.68 c 8.94,-6.65 17.28,-9.33 17.34,-22.43 q 0.13,-28.27 0.03,-56.54 -0.03,-7.16 -1.06,-10.17 C 292,146.28 281.55,142.4 272.24,143.24 q -46.61,4.21 -92.92,11.18 -0.55,0.08 -0.29,0.58 l 13.16,24.52 a 2.56,2.55 -59.4 0 1 0.31,1.22 v 186.74 q 0,0.47 0.45,0.35 14.5,-3.63 29.03,-7.08 5.3,-1.26 10.68,-1.48 18.13,-0.73 36.28,-0.88 c 10.97,-0.09 23.27,-4.73 27.3,-15.46 q 1.45,-3.86 1.54,-13.05 0.28,-30.31 -0.06,-60.62 -0.09,-7.33 -1.49,-10.72 c -2.93,-7.12 -10.95,-9.93 -17.31,-13.08 q -0.67,-0.33 -0.07,-0.78"
           inkscape:connector-curvature="0"
           style="vector-effect:non-scaling-stroke;stroke:#c5746d" /><path
           id="path5008"
           d="m 352.17,205.36 c 0.05,5.91 -0.44,14.05 0.15,21.14 q 0.04,0.39 0.42,0.38 l 34.24,-1.01 a 0.29,0.29 0 0 0 0.28,-0.29 l 0.04,-61.86 q 0,-0.57 -0.57,-0.55 c -17.55,0.63 -35.68,-2.5 -34.67,22.77 0.27,6.84 0.05,12.93 0.11,19.42 m 250.28,58.37 q -2.11,-1.41 0.41,-1.13 15.3,1.7 29.99,3.62 c 4.28,0.56 11.53,7.13 15.23,9.81 q 0.4,0.3 0.4,0.79 c 0.06,22.09 1.01,44.93 -0.52,66.93 -1.39,20 -4.23,45.72 -21.5,59.05 a 0.73,0.73 0 0 0 0.71,1.26 q 45.36,-17.39 51.27,-63.6 0.82,-6.44 0.81,-19.95 -0.03,-18.97 -0.26,-37.95 -0.12,-9.87 -7.92,-15.64 -7.34,-5.43 -14.93,-10.65 a 0.41,0.41 0 0 1 0.07,-0.71 q 7.66,-3.43 15.26,-6.94 c 3.95,-1.83 5.96,-4.47 5.99,-8.69 q 0.13,-17.41 0.01,-78.71 -0.01,-0.52 -0.52,-0.6 l -29.37,-4.36 a 0.49,0.48 -85.5 0 0 -0.56,0.48 l -0.03,75.85 q 0,0.65 -0.57,0.99 l -9.96,5.79 q -0.43,0.25 -0.92,0.19 l -22.18,-2.82 q -0.61,-0.08 -0.61,-0.69 l 0.01,-83.79 q 0,-0.51 -0.5,-0.56 l -40.71,-4.28 a 0.32,0.32 0 0 0 -0.32,0.45 q 4.89,10.63 10.01,20.95 0.99,2 1,4.22 0.02,90.9 0.02,181.47 a 0.86,0.85 -87 0 0 0.76,0.85 l 29.24,3.14 a 0.46,0.46 0 0 0 0.51,-0.47 q -0.04,-42.48 -0.01,-85.01 c 0,-1.37 0.64,-1.89 -0.86,-2.91 q -5.28,-3.59 -9.45,-6.38 m -331.8,-17.55 a 0.4,0.39 40.9 0 1 -0.05,-0.68 q 7.43,-5.01 14.7,-10.12 c 6.67,-4.69 6.92,-8.55 6.94,-16.88 q 0.09,-27.28 -0.07,-54.56 c -0.05,-9 -4.31,-14.31 -12.68,-16.14 q -3.47,-0.76 -5.74,-0.56 -41.66,3.73 -83.05,9.74 -2.19,0.31 -4.44,0.29 a 0.67,0.66 76.3 0 0 -0.59,0.98 q 4.85,9.16 9.82,18.36 1.02,1.89 1.02,4.03 -0.02,33.99 0,68 0,0.56 0.42,0.94 l 3.57,3.17 q 0.42,0.37 0.04,0.79 l -3.61,3.97 q -0.43,0.48 -0.43,1.12 v 103.8 a 0.34,0.33 -6.9 0 0 0.42,0.32 c 11.4,-2.9 23.89,-6.95 35.62,-7.56 q 18.34,-0.97 36.7,-0.93 c 11.06,0.02 24.48,-5.7 24.5,-18.76 q 0.04,-32.56 -0.01,-65.13 c -0.01,-7.61 -1.1,-13.66 -7.97,-16.88 q -7.68,-3.62 -15.11,-7.31"
           inkscape:connector-curvature="0"
           style="vector-effect:non-scaling-stroke;stroke:#651b26" /><path
           id="path5010"
           d="m 226.83,181.32 q 0.42,0.18 0.42,0.64 v 54.36 q 0,0.59 0.58,0.53 l 21.94,-2.44 q 0.5,-0.06 0.89,-0.37 l 10.19,-8.21 q 0.4,-0.33 0.4,-0.85 v -53.71 q 0,-0.46 -0.46,-0.42 c -9.75,0.93 -44.97,4.58 -45.24,5.01 q -0.28,0.46 0.22,0.68 l 11.06,4.78 m 0.42,154.78 a 0.34,0.34 0 0 0 0.38,0.34 l 34.82,-3.84 a 0.34,0.34 0 0 0 0.3,-0.33 v -63.95 a 0.34,0.34 0 0 0 -0.19,-0.3 l -13.14,-6.49 a 0.34,0.34 0 0 0 -0.19,-0.03 l -21.68,2.42 a 0.34,0.34 0 0 0 -0.3,0.33 v 71.85"
           inkscape:connector-curvature="0"
           style="vector-effect:non-scaling-stroke;stroke:#651b26" /><path
           id="path5012"
           d="m 766.77,357.53 -25.41,-5.3 Q 741,352.16 741,351.79 V 322.3 q 0,-0.63 -0.51,-0.99 l -37.64,-26.89 a 0.37,0.37 0 0 0 -0.59,0.3 q -0.04,27.77 0.01,55.47 0.02,7.45 0.8,10.42 c 3.01,11.37 13.54,17.42 24.3,19.52 q 26.74,5.21 53.36,11.07 8.18,1.8 12.16,1.23 c 11.01,-1.57 13.61,-10.37 13.6,-20.43 q -0.02,-23.69 0.05,-47.42 c 0.03,-9.63 -4.5,-18.63 -10.28,-26.11 q -26.81,-34.71 -54.39,-68.87 -0.37,-0.47 -0.37,-1.06 v -29.28 q 0,-0.77 0.76,-0.61 l 25.54,5.34 q 0.45,0.09 0.45,0.56 v 19.64 a 0.63,0.62 18.9 0 0 0.25,0.5 l 37.58,28.49 q 0.42,0.31 0.42,-0.21 v -70.19 q 0,-0.56 -0.55,-0.68 -39.37,-9.15 -79.02,-16.95 c -14.61,-2.88 -24.82,3.68 -24.73,19.26 q 0.12,18.69 0.02,37.41 c -0.04,8.13 2.21,14.98 6.99,20.97 q 29.13,36.52 57.93,73.38 0.36,0.47 0.36,1.06 v 39.7 q 0,0.75 -0.73,0.6 M 51.6,205.62 q 0.15,0.28 0.15,0.59 V 393.5 q 0,0.51 0.49,0.35 14.64,-4.99 29.35,-9.84 c 11.93,-3.94 25.64,-1.57 37.24,-5.24 21.79,-6.9 35.19,-26.27 35.26,-49.28 q 0.19,-63.78 0.14,-127.56 C 154.21,176.76 137.7,161.07 112.5,165.76 q -37.07,6.9 -73.7,15.88 -0.49,0.12 -0.24,0.57 l 13.04,23.41 m 304.38,16.66 q 0,0.35 0.35,0.34 l 26.41,-0.83 q 0.51,-0.01 0.51,-0.53 v -53.24 q 0,-0.48 -0.48,-0.48 C 370.31,167.37 356,165.85 356,182.75 q 0,18.81 -0.02,39.53"
           inkscape:connector-curvature="0"
           style="vector-effect:non-scaling-stroke;stroke:#c5746d" /><path
           id="path5014"
           d="m 726.28,191.72 q 2.27,0.16 6.54,0.97 19.46,3.72 38.88,8.03 a 0.37,0.37 0 0 1 0.3,0.36 v 20.85 a 1.6,1.6 0 0 0 0.64,1.28 l 29.21,22.14 a 0.42,0.42 0 0 0 0.67,-0.33 l -0.03,-59.03 q 0,-0.59 -0.57,-0.72 -36.86,-8.54 -73.95,-15.81 c -8.63,-1.68 -16.73,-1.21 -20.37,7.43 q -1.42,3.36 -1.39,10.89 0.07,18.31 0.05,36.62 c -0.01,8.4 4.61,14.64 9.59,20.88 q 27.92,34.94 55.33,70.28 0.32,0.41 0.32,0.93 v 45.6 a 0.47,0.47 0 0 1 -0.56,0.46 l -33.58,-6.98 q -0.61,-0.13 -0.61,-0.75 v -31.09 q 0,-0.53 -0.43,-0.84 l -29.29,-20.93 a 0.5,0.5 0 0 0 -0.79,0.41 q -0.03,26.62 0.21,53.07 c 0.13,13.8 11.78,18.8 23.21,21.03 q 18.92,3.69 54.64,11.43 12.79,2.78 16.82,-6.98 1.43,-3.46 1.41,-10.99 -0.06,-24.28 -0.04,-48.55 c 0.01,-8.4 -6.86,-18.07 -12.33,-25.07 q -25.92,-33.16 -52.34,-65.97 -0.32,-0.39 -0.32,-0.9 v -28.03 q 0,-0.63 -0.51,-1.02 l -10.84,-8.33 q -0.49,-0.39 0.13,-0.34 M 146.3,262 q -0.71,-0.59 -0.04,-1.24 c 2.1,-2.04 3.72,-3.62 3.73,-6.81 q 0.07,-26.86 0.02,-53.69 c -0.05,-22.94 -17.15,-34.21 -38.69,-30.14 q -33.03,6.25 -65.83,13.98 -0.67,0.16 -0.34,0.76 4.71,8.66 9.61,17.38 0.99,1.76 0.99,3.79 V 388.2 a 0.24,0.24 0 0 0 0.32,0.22 q 13.24,-4.58 26.57,-8.91 c 8.03,-2.61 18.15,-2.19 26.61,-2.91 19.26,-1.64 34.99,-16 39.33,-33.99 q 1.45,-6 1.43,-19.88 -0.03,-28.51 0,-57.08 0,-0.57 -0.44,-0.93 L 146.3,262"
           inkscape:connector-curvature="0"
           style="vector-effect:non-scaling-stroke;stroke:#651b26" /><path
           id="path5016"
           d="m 378.58,217 -0.1,-44.28 a 0.51,0.51 0 0 0 -0.52,-0.51 c -7.35,0.17 -17.29,-1.32 -17.38,9.32 q -0.15,17.93 -0.06,36.01 0,0.42 0.42,0.4 l 17.31,-0.6 q 0.33,-0.01 0.33,-0.34"
           inkscape:connector-curvature="0"
           style="vector-effect:non-scaling-stroke;stroke:#eee7d6" /><path
           id="path5018"
           d="m 85.91,204.4 a 0.51,0.51 0 0 1 0.34,0.48 v 154.31 a 0.25,0.24 83.5 0 0 0.3,0.24 c 16.88,-3.44 33.46,-4.09 33.46,-25.92 l -0.02,-120.23 c 0,-8.55 -0.41,-16.74 -9.36,-18.92 q -4,-0.97 -14.17,1.03 -10.83,2.13 -21.59,4.49 a 0.34,0.34 0 0 0 -0.04,0.66 l 11.08,3.86"
           inkscape:connector-curvature="0"
           style="vector-effect:non-scaling-stroke;stroke:#651b26" /><path
           id="path5020"
           d="m 233.41,177.71 q -0.97,0.11 -1.63,0.51 -0.29,0.17 -0.29,0.5 l 0.01,53.04 q 0,0.55 0.54,0.49 7.26,-0.8 14.54,-1.63 c 3.92,-0.45 7.5,-4.05 10.27,-6.64 q 0.4,-0.38 0.4,-0.93 V 176 q 0,-0.53 -0.52,-0.49 -11.74,0.81 -23.32,2.2"
           inkscape:connector-curvature="0"
           style="vector-effect:non-scaling-stroke;stroke:#c5746d" /><path
           id="path5022"
           d="m 252.32,180.37 -15.55,1.68 q -0.77,0.08 -0.77,0.86 v 43.84 q 0,0.54 0.54,0.47 c 6.4,-0.84 11.3,-0.25 15.87,-5.56 q 0.3,-0.35 0.3,-0.81 l 0.12,-40.02 q 0,-0.51 -0.51,-0.46"
           inkscape:connector-curvature="0"
           style="vector-effect:non-scaling-stroke;stroke:#eee7d6" /><path
           id="path5024"
           d="m 90.3,354.19 a 0.26,0.26 0 0 0 0.31,0.29 c 9.1,-1.73 24.6,-2.8 25.07,-16.46 q 0.24,-6.87 0.26,-16.33 0.15,-62.39 -0.22,-110.5 -0.05,-6.54 -1.58,-9.08 C 110,195.24 97.46,199.17 90.91,200.62 q -0.51,0.11 -0.53,0.63 -0.09,2.5 -0.1,5 -0.03,72.72 -0.03,145.44 0.26,0.11 0.05,2.5"
           inkscape:connector-curvature="0"
           style="vector-effect:non-scaling-stroke;stroke:#c5746d" /><path
           id="path5026"
           d="m 111.25,336.55 c 0,-42.3 0.63,-84.74 -0.01,-127.02 -0.15,-9.73 -9.73,-6.73 -16.01,-5.14 q -0.48,0.12 -0.48,0.61 v 143.45 a 0.44,0.43 85 0 0 0.51,0.43 c 7.87,-1.43 15.99,-1.93 15.99,-12.33"
           inkscape:connector-curvature="0"
           style="vector-effect:non-scaling-stroke;stroke:#eee7d6" /><path
           id="path5028"
           d="m 246.39,265.97 c -4.57,0.32 -9.97,0.71 -14.42,1.69 q -0.48,0.1 -0.48,0.59 l 0.01,62.94 q 0,0.61 0.61,0.54 l 26.2,-2.82 q 0.44,-0.04 0.44,-0.48 v -56.96 q 0,-0.56 -0.5,-0.8 c -3.17,-1.58 -8.37,-4.94 -11.86,-4.7"
           inkscape:connector-curvature="0"
           style="vector-effect:non-scaling-stroke;stroke:#c5746d" /><path
           id="path5030"
           d="m 247.18,270.71 c -1.48,-0.64 -8.69,0.67 -10.55,0.99 Q 236,271.81 236,272.45 L 235.99,326 q 0,0.69 0.69,0.62 l 17.43,-1.83 a 0.44,0.43 87.1 0 0 0.39,-0.44 v -49.6 q 0,-0.48 -0.43,-0.71 -3.41,-1.84 -6.89,-3.33"
           inkscape:connector-curvature="0"
           style="vector-effect:non-scaling-stroke;stroke:#eee7d6" /></g><path
         id="path5042"
         d="M 378.51,261.78 361,262.49 q -0.5,0.02 -0.5,0.51 v 94.01 q 0,0.53 -0.53,0.49 -2.83,-0.21 -3.71,-0.18 -21.67,0.91 -43.3,2.36 -0.55,0.04 -0.62,-0.51 c -0.4,-3.11 0.25,-6.72 0.19,-9.24 q -0.2,-9.14 -0.11,-32.74 c 0.16,-42.04 -0.63,-77.43 0.15,-111.1 0.36,-15.7 0.5,-25.6 5.27,-37.96 5.36,-13.86 16.69,-25.55 28.93,-33.86 a 3.74,3.74 0 0 1 1.92,-0.64 q 39.01,-1.81 78.06,-1.63 a 0.5,0.5 0 0 1 0.5,0.5 v 223.43 q 0,0.44 -0.43,0.44 l -47.38,0.07 q -0.45,0 -0.45,-0.44 L 379,262.26 a 0.48,0.47 88.9 0 0 -0.49,-0.48 z m -21.58,-3.91 26.02,-0.7 q 0.55,-0.02 0.55,0.53 v 93.73 q 0,0.43 0.43,0.43 l 38.08,-0.13 q 0.74,0 0.74,-0.74 V 136.95 a 0.48,0.47 90 0 0 -0.47,-0.48 q -36.33,-0.01 -72.62,1.72 -0.51,0.03 -0.93,0.32 c -17.5,12.23 -28.93,27.64 -31,49.08 -0.67,6.98 -0.96,20.03 -0.97,28.66 q -0.03,69.06 0,137.83 a 0.67,0.66 88.4 0 0 0.7,0.67 l 37.94,-2 q 0.85,-0.04 0.85,-0.9 v -93.28 q 0,-0.68 0.68,-0.7 z m 128.82,59.58 17.79,0.7 q 0.46,0.01 0.46,-0.44 v -27.62 a 1.23,1.23 0 0 1 0.72,-1.12 l 46.88,-21.4 q 0.64,-0.29 0.64,0.41 0.03,32.07 0.03,64.03 c 0,12.01 -3.61,21.66 -15.68,25.79 q -4.61,1.58 -12.9,1.38 c -8.31,-0.2 -17.71,-0.98 -24.92,-1.27 l -32.36,-1.24 c -16.02,-0.61 -28.93,-10.1 -28.97,-27.24 q -0.21,-83.71 -0.19,-167.43 0,-22.51 19.14,-28.36 4.04,-1.24 10.01,-1.06 c 28.19,0.83 56.43,2.4 84.71,4.44 q 1.14,0.08 1.14,1.23 v 81.95 a 0.36,0.36 0 0 1 -0.54,0.31 L 504.7,192.92 A 1.42,1.41 15.2 0 1 504,191.7 v -17.41 q 0,-0.47 -0.47,-0.49 l -17.48,-0.88 q -0.55,-0.03 -0.55,0.53 v 143.73 a 0.27,0.26 -88.9 0 0 0.25,0.27 z m 22.74,-147.36 0.08,19.27 q 0,0.53 0.47,0.8 l 38.03,22.28 q 0.43,0.25 0.43,-0.24 v -70.42 q 0,-0.48 -0.47,-0.51 -38.34,-2.62 -76.36,-4.03 -9.58,-0.35 -13.71,1.04 c -8.55,2.9 -15,10.24 -14.99,19.72 Q 442,242.96 442,327.92 c 0,14.62 9.17,23.56 23.83,24.05 q 25.51,0.85 51,2.33 c 11.04,0.64 23.98,1.31 29.27,-11.04 q 1.39,-3.23 1.39,-9.73 0.04,-29.1 0,-58.22 0,-0.61 -0.56,-0.36 l -37.76,17.22 q -0.51,0.23 -0.52,0.8 l -0.21,29.57 q -0.01,0.47 -0.48,0.45 l -26.35,-1.19 a 0.38,0.38 0 0 1 -0.36,-0.38 V 168.71 q 0,-0.54 0.54,-0.52 l 26.05,1.22 q 0.64,0.03 0.65,0.68 z"
         inkscape:connector-curvature="0"
         style="fill:#3ec1cd;fill-opacity:1" /><path
         id="path5044"
         d="m 356.25,258.57 v 93.28 q 0,0.86 -0.85,0.9 l -37.94,2 a 0.67,0.66 88.4 0 1 -0.7,-0.67 q -0.03,-68.77 0,-137.83 c 0.01,-8.63 0.3,-21.68 0.97,-28.66 2.07,-21.44 13.5,-36.85 31,-49.08 q 0.42,-0.29 0.93,-0.32 36.29,-1.73 72.62,-1.72 a 0.48,0.47 90 0 1 0.47,0.48 v 214.04 q 0,0.74 -0.74,0.74 l -38.08,0.13 q -0.43,0 -0.43,-0.43 V 257.7 q 0,-0.55 -0.55,-0.53 l -26.02,0.7 q -0.68,0.02 -0.68,0.7 z m -16.08,-3.5 a 0.34,0.33 -31.9 0 1 0.15,-0.63 l 46.33,-1.62 a 0.83,0.82 88.6 0 1 0.85,0.82 l 0.01,93.49 q 0,0.62 0.62,0.62 h 30.31 a 0.31,0.31 0 0 0 0.31,-0.31 V 141.23 q 0,-0.77 -0.77,-0.75 l -66.88,1.56 q -0.51,0.01 -0.91,0.31 c -19.86,14.2 -29.03,30.77 -28.97,55.65 q 0.15,56.92 -0.14,113.83 c -0.06,10.41 0.33,24.75 0.12,37.32 q -0.02,1.18 1.16,1.12 l 28.96,-1.4 q 0.56,-0.03 0.61,-0.59 0.29,-4.01 0.29,-8.04 0.05,-39.15 0.03,-78.44 0,-0.53 -0.47,-0.77 z m 167.67,-85.66 -26.05,-1.22 q -0.54,-0.02 -0.54,0.52 v 152.71 a 0.38,0.38 0 0 0 0.36,0.38 l 26.35,1.19 q 0.47,0.02 0.48,-0.45 l 0.21,-29.57 q 0.01,-0.57 0.52,-0.8 l 37.76,-17.22 q 0.56,-0.25 0.56,0.36 0.04,29.12 0,58.22 0,6.5 -1.39,9.73 c -5.29,12.35 -18.23,11.68 -29.27,11.04 q -25.49,-1.48 -51,-2.33 C 451.17,351.48 442,342.54 442,327.92 Q 442,242.96 441.97,158 c -0.01,-9.48 6.44,-16.82 14.99,-19.72 q 4.13,-1.39 13.71,-1.04 38.02,1.41 76.36,4.03 0.47,0.03 0.47,0.51 v 70.42 q 0,0.49 -0.43,0.24 l -38.03,-22.28 q -0.47,-0.27 -0.47,-0.8 l -0.08,-19.27 q -0.01,-0.65 -0.65,-0.68 z m -42.81,-5.39 a 0.29,0.28 -28.4 0 1 0.16,-0.53 l 46.99,1.85 q 0.57,0.02 0.57,0.59 v 21.28 q 0,0.5 0.44,0.76 l 29.92,17.52 a 0.43,0.43 0 0 0 0.64,-0.37 v -59.16 q 0,-0.63 -0.62,-0.69 c -28.65,-2.99 -55.05,-2.58 -75.77,-4.08 -11.81,-0.86 -21.12,5.67 -21.12,18.14 q 0.02,84.98 0,169.98 c 0,14.79 11.75,18.72 24.26,18.89 16.85,0.24 35.77,1.85 55.85,2.28 10.74,0.22 17.46,-6.5 17.45,-17.47 q -0.03,-25.73 -0.07,-51.44 a 0.35,0.35 0 0 0 -0.49,-0.32 l -30.19,13.74 a 0.53,0.53 0 0 0 -0.31,0.48 l 0.02,31.35 a 0.49,0.48 0.6 0 1 -0.51,0.49 l -34.23,-1.48 A 1.07,1.06 -88.9 0 1 477,324.76 V 171.54 q 0,-0.53 -0.45,-0.79 z"
         inkscape:connector-curvature="0"
         style="fill:#ad192e" /><path
         id="path5046"
         d="m 673.55,258.75 c 9.73,6.28 13.82,14.88 13.99,26.28 q 0.61,41.32 -0.08,52.44 c -2.35,37.8 -24.94,64.46 -60.29,76.25 a 2.56,2.55 56.2 0 1 -2.5,-0.5 l -12.32,-10.88 a 0.34,0.33 -43 0 1 0.02,-0.52 c 6.59,-4.92 13.05,-9 17.33,-16.63 9.36,-16.66 10.06,-41.28 10.06,-60.19 q -0.01,-22.11 -0.01,-44.23 0,-0.51 -0.4,-0.82 c -2.87,-2.3 -5.75,-4.98 -9.56,-5.44 q -3.71,-0.44 -7.41,-0.81 -0.63,-0.07 -0.63,0.57 v 93.12 a 0.81,0.81 0 0 1 -0.89,0.81 l -46.91,-5.09 q -0.44,-0.05 -0.44,-0.5 -0.02,-94.02 -0.01,-188.03 0,-2.33 -1,-4.44 -7.63,-16.01 -15.32,-32.07 a 0.48,0.48 0 0 1 0.49,-0.68 l 63.44,6.51 q 0.64,0.07 0.64,0.71 v 84.03 q 0,0.41 0.41,0.46 l 10.4,1.31 q 0.54,0.07 1.01,-0.19 l 4.39,-2.35 q 0.53,-0.28 0.53,-0.87 l 0.28,-80.11 q 0,-0.62 0.61,-0.53 l 46.52,6.9 q 0.55,0.08 0.55,0.63 0.22,39.96 -0.27,79.85 c -0.13,10.33 -0.23,20.53 -12.44,23.8 a 0.67,0.67 0 0 0 -0.19,1.21 z m -9.25,-1.51 a 0.34,0.34 0 0 1 0.07,-0.58 c 11.33,-5.11 17.28,-5.71 17.32,-20.41 q 0.09,-39.26 0.06,-78.54 0,-0.48 -0.48,-0.55 l -37.99,-5.65 q -0.53,-0.08 -0.53,0.46 v 78.27 q 0,0.51 -0.45,0.77 l -7.01,4.05 q -0.48,0.28 -1.03,0.21 l -16.56,-2.13 a 0.77,0.76 -86.6 0 1 -0.67,-0.76 l -0.04,-83.48 q 0,-0.82 -0.81,-0.91 l -51.12,-5.36 q -0.7,-0.08 -0.41,0.57 6.1,13.25 12.59,26.37 0.99,2 0.99,4.24 0.04,92.32 0.01,184.68 0,0.48 0.48,0.53 l 37.83,4.12 q 0.41,0.05 0.41,-0.36 l 0.16,-93.3 q 0.01,-1.15 1.15,-1.01 l 15.24,1.97 q 0.51,0.07 0.93,0.37 l 9.61,6.99 q 0.42,0.3 0.43,0.83 0.08,23.62 -0.01,47.24 c -0.09,19.71 -1.22,42.11 -9.93,60.2 -3.41,7.09 -8.29,12.05 -14.7,16.24 q -0.48,0.32 -0.06,0.7 l 6.2,5.54 q 0.41,0.36 0.92,0.18 49.44,-17.75 55.65,-67.99 0.8,-6.48 0.74,-19.97 -0.08,-17.03 -0.05,-34.06 c 0.03,-16.7 -7.05,-20.43 -18.94,-29.47 z M 287.92,244.53 c 10.66,4.61 14.34,12.56 14.34,23.75 q -0.02,30 0,59.99 0,10.83 -1.51,15.32 c -5.1,15.1 -20.29,19.11 -34.65,19.36 q -15.63,0.27 -31.26,0.72 -5.59,0.16 -10.94,1.36 -17.41,3.9 -34.73,8.51 -0.93,0.24 -0.93,-0.72 0.03,-93.89 -0.01,-188.38 0,-2.13 -1.02,-4.01 -7.88,-14.57 -15.49,-28.76 -0.37,-0.69 0.41,-0.81 50.95,-7.67 101.37,-12.36 c 10.22,-0.95 21.56,4.27 25.48,14.16 q 1.5,3.79 1.59,11.88 0.33,27.48 0.24,54.96 c -0.05,13.45 -3.32,17.05 -12.97,24.39 q -0.51,0.38 0.08,0.64 z m -9.07,0.15 c 8.94,-6.65 17.28,-9.33 17.34,-22.43 q 0.13,-28.27 0.03,-56.54 -0.03,-7.16 -1.06,-10.17 C 292,146.28 281.55,142.4 272.24,143.24 q -46.61,4.21 -92.92,11.18 -0.55,0.08 -0.29,0.58 l 13.16,24.52 a 2.56,2.55 -59.4 0 1 0.31,1.22 v 186.74 q 0,0.47 0.45,0.35 14.5,-3.63 29.03,-7.08 5.3,-1.26 10.68,-1.48 18.13,-0.73 36.28,-0.88 c 10.97,-0.09 23.27,-4.73 27.3,-15.46 q 1.45,-3.86 1.54,-13.05 0.28,-30.31 -0.06,-60.62 -0.09,-7.33 -1.49,-10.72 c -2.93,-7.12 -10.95,-9.93 -17.31,-13.08 q -0.67,-0.33 -0.07,-0.78 z"
         inkscape:connector-curvature="0"
         style="fill:#3ec1cd;fill-opacity:1" /><path
         id="path5048"
         d="m 340.17,255.07 11.61,5.96 q 0.47,0.24 0.47,0.77 0.02,39.29 -0.03,78.44 0,4.03 -0.29,8.04 -0.05,0.56 -0.61,0.59 l -28.96,1.4 q -1.18,0.06 -1.16,-1.12 c 0.21,-12.57 -0.18,-26.91 -0.12,-37.32 q 0.29,-56.91 0.14,-113.83 c -0.06,-24.88 9.11,-41.45 28.97,-55.65 q 0.4,-0.3 0.91,-0.31 l 66.88,-1.56 q 0.77,-0.02 0.77,0.75 v 206.21 a 0.31,0.31 0 0 1 -0.31,0.31 h -30.31 q -0.62,0 -0.62,-0.62 l -0.01,-93.49 a 0.83,0.82 88.6 0 0 -0.85,-0.82 l -46.33,1.62 a 0.34,0.33 -31.9 0 0 -0.15,0.63 z m 12,-49.71 c 0.05,5.91 -0.44,14.05 0.15,21.14 q 0.04,0.39 0.42,0.38 l 34.24,-1.01 a 0.29,0.29 0 0 0 0.28,-0.29 l 0.04,-61.86 q 0,-0.57 -0.57,-0.55 c -17.55,0.63 -35.68,-2.5 -34.67,22.77 0.27,6.84 0.05,12.93 0.11,19.42 z m 112.86,-41.34 11.52,6.73 q 0.45,0.26 0.45,0.79 v 153.22 a 1.07,1.06 -88.9 0 0 1.02,1.07 l 34.23,1.48 a 0.49,0.48 0.6 0 0 0.51,-0.49 l -0.02,-31.35 a 0.53,0.53 0 0 1 0.31,-0.48 l 30.19,-13.74 a 0.35,0.35 0 0 1 0.49,0.32 q 0.04,25.71 0.07,51.44 c 0.01,10.97 -6.71,17.69 -17.45,17.47 -20.08,-0.43 -39,-2.04 -55.85,-2.28 -12.51,-0.17 -24.26,-4.1 -24.26,-18.89 q 0.02,-85 0,-169.98 c 0,-12.47 9.31,-19 21.12,-18.14 20.72,1.5 47.12,1.09 75.77,4.08 q 0.62,0.06 0.62,0.69 v 59.16 a 0.43,0.43 0 0 1 -0.64,0.37 l -29.92,-17.52 q -0.44,-0.26 -0.44,-0.76 v -21.28 q 0,-0.57 -0.57,-0.59 l -46.99,-1.85 a 0.29,0.28 -28.4 0 0 -0.16,0.53 z"
         inkscape:connector-curvature="0"
         style="fill:#1d1d1d" /><path
         id="path5050"
         d="m 664.3,257.24 c 11.89,9.04 18.97,12.77 18.94,29.47 q -0.03,17.03 0.05,34.06 0.06,13.49 -0.74,19.97 -6.21,50.24 -55.65,67.99 -0.51,0.18 -0.92,-0.18 l -6.2,-5.54 q -0.42,-0.38 0.06,-0.7 c 6.41,-4.19 11.29,-9.15 14.7,-16.24 8.71,-18.09 9.84,-40.49 9.93,-60.2 q 0.09,-23.62 0.01,-47.24 -0.01,-0.53 -0.43,-0.83 l -9.61,-6.99 q -0.42,-0.3 -0.93,-0.37 l -15.24,-1.97 q -1.14,-0.14 -1.15,1.01 l -0.16,93.3 q 0,0.41 -0.41,0.36 l -37.83,-4.12 q -0.48,-0.05 -0.48,-0.53 0.03,-92.36 -0.01,-184.68 0,-2.24 -0.99,-4.24 -6.49,-13.12 -12.59,-26.37 -0.29,-0.65 0.41,-0.57 l 51.12,5.36 q 0.81,0.09 0.81,0.91 l 0.04,83.48 a 0.77,0.76 -86.6 0 0 0.67,0.76 l 16.56,2.13 q 0.55,0.07 1.03,-0.21 l 7.01,-4.05 q 0.45,-0.26 0.45,-0.77 v -78.27 q 0,-0.54 0.53,-0.46 l 37.99,5.65 q 0.48,0.07 0.48,0.55 0.03,39.28 -0.06,78.54 c -0.04,14.7 -5.99,15.3 -17.32,20.41 a 0.34,0.34 0 0 0 -0.07,0.58 z m -61.85,6.49 q -2.11,-1.41 0.41,-1.13 15.3,1.7 29.99,3.62 c 4.28,0.56 11.53,7.13 15.23,9.81 q 0.4,0.3 0.4,0.79 c 0.06,22.09 1.01,44.93 -0.52,66.93 -1.39,20 -4.23,45.72 -21.5,59.05 a 0.73,0.73 0 0 0 0.71,1.26 q 45.36,-17.39 51.27,-63.6 0.82,-6.44 0.81,-19.95 -0.03,-18.97 -0.26,-37.95 -0.12,-9.87 -7.92,-15.64 -7.34,-5.43 -14.93,-10.65 a 0.41,0.41 0 0 1 0.07,-0.71 q 7.66,-3.43 15.26,-6.94 c 3.95,-1.83 5.96,-4.47 5.99,-8.69 q 0.13,-17.41 0.01,-78.71 -0.01,-0.52 -0.52,-0.6 l -29.37,-4.36 a 0.49,0.48 -85.5 0 0 -0.56,0.48 l -0.03,75.85 q 0,0.65 -0.57,0.99 l -9.96,5.79 q -0.43,0.25 -0.92,0.19 l -22.18,-2.82 q -0.61,-0.08 -0.61,-0.69 l 0.01,-83.79 q 0,-0.51 -0.5,-0.56 l -40.71,-4.28 a 0.32,0.32 0 0 0 -0.32,0.45 q 4.89,10.63 10.01,20.95 0.99,2 1,4.22 0.02,90.9 0.02,181.47 a 0.86,0.85 -87 0 0 0.76,0.85 l 29.24,3.14 a 0.46,0.46 0 0 0 0.51,-0.47 q -0.04,-42.48 -0.01,-85.01 c 0,-1.37 0.64,-1.89 -0.86,-2.91 q -5.28,-3.59 -9.45,-6.38 z M 278.92,245.46 c 6.36,3.15 14.38,5.96 17.31,13.08 q 1.4,3.39 1.49,10.72 0.34,30.31 0.06,60.62 -0.09,9.19 -1.54,13.05 c -4.03,10.73 -16.33,15.37 -27.3,15.46 q -18.15,0.15 -36.28,0.88 -5.38,0.22 -10.68,1.48 -14.53,3.45 -29.03,7.08 -0.45,0.12 -0.45,-0.35 V 180.74 a 2.56,2.55 -59.4 0 0 -0.31,-1.22 L 179.03,155 q -0.26,-0.5 0.29,-0.58 46.31,-6.97 92.92,-11.18 c 9.31,-0.84 19.76,3.04 22.92,12.3 q 1.03,3.01 1.06,10.17 0.1,28.27 -0.03,56.54 c -0.06,13.1 -8.4,15.78 -17.34,22.43 q -0.6,0.45 0.07,0.78 z m -8.27,0.72 a 0.4,0.39 40.9 0 1 -0.05,-0.68 q 7.43,-5.01 14.7,-10.12 c 6.67,-4.69 6.92,-8.55 6.94,-16.88 q 0.09,-27.28 -0.07,-54.56 c -0.05,-9 -4.31,-14.31 -12.68,-16.14 q -3.47,-0.76 -5.74,-0.56 -41.66,3.73 -83.05,9.74 -2.19,0.31 -4.44,0.29 a 0.67,0.66 76.3 0 0 -0.59,0.98 q 4.85,9.16 9.82,18.36 1.02,1.89 1.02,4.03 -0.02,33.99 0,68 0,0.56 0.42,0.94 l 3.57,3.17 q 0.42,0.37 0.04,0.79 l -3.61,3.97 q -0.43,0.48 -0.43,1.12 v 103.8 a 0.34,0.33 -6.9 0 0 0.42,0.32 c 11.4,-2.9 23.89,-6.95 35.62,-7.56 q 18.34,-0.97 36.7,-0.93 c 11.06,0.02 24.48,-5.7 24.5,-18.76 q 0.04,-32.56 -0.01,-65.13 c -0.01,-7.61 -1.1,-13.66 -7.97,-16.88 q -7.68,-3.62 -15.11,-7.31 z"
         inkscape:connector-curvature="0"
         style="fill:#ad192e" /><path
         id="path5052"
         d="m 270.65,246.18 q 7.43,3.69 15.11,7.31 c 6.87,3.22 7.96,9.27 7.97,16.88 q 0.05,32.57 0.01,65.13 c -0.02,13.06 -13.44,18.78 -24.5,18.76 q -18.36,-0.04 -36.7,0.93 c -11.73,0.61 -24.22,4.66 -35.62,7.56 a 0.34,0.33 -6.9 0 1 -0.42,-0.32 v -103.8 q 0,-0.64 0.43,-1.12 l 3.61,-3.97 q 0.38,-0.42 -0.04,-0.79 l -3.57,-3.17 q -0.42,-0.38 -0.42,-0.94 -0.02,-34.01 0,-68 0,-2.14 -1.02,-4.03 -4.97,-9.2 -9.82,-18.36 a 0.67,0.66 76.3 0 1 0.59,-0.98 q 2.25,0.02 4.44,-0.29 41.39,-6.01 83.05,-9.74 2.27,-0.2 5.74,0.56 c 8.37,1.83 12.63,7.14 12.68,16.14 q 0.16,27.28 0.07,54.56 c -0.02,8.33 -0.27,12.19 -6.94,16.88 q -7.27,5.11 -14.7,10.12 a 0.4,0.39 40.9 0 0 0.05,0.68 z m -43.82,-64.86 q 0.42,0.18 0.42,0.64 v 54.36 q 0,0.59 0.58,0.53 l 21.94,-2.44 q 0.5,-0.06 0.89,-0.37 l 10.19,-8.21 q 0.4,-0.33 0.4,-0.85 v -53.71 q 0,-0.46 -0.46,-0.42 c -9.75,0.93 -44.97,4.58 -45.24,5.01 q -0.28,0.46 0.22,0.68 z m 0.42,154.78 a 0.34,0.34 0 0 0 0.38,0.34 l 34.82,-3.84 a 0.34,0.34 0 0 0 0.3,-0.33 v -63.95 a 0.34,0.34 0 0 0 -0.19,-0.3 l -13.14,-6.49 a 0.34,0.34 0 0 0 -0.19,-0.03 l -21.68,2.42 a 0.34,0.34 0 0 0 -0.3,0.33 z m 375.2,-72.37 q 4.17,2.79 9.45,6.38 c 1.5,1.02 0.86,1.54 0.86,2.91 q -0.03,42.53 0.01,85.01 a 0.46,0.46 0 0 1 -0.51,0.47 l -29.24,-3.14 a 0.86,0.85 -87 0 1 -0.76,-0.85 q 0,-90.57 -0.02,-181.47 -0.01,-2.22 -1,-4.22 -5.12,-10.32 -10.01,-20.95 a 0.32,0.32 0 0 1 0.32,-0.45 l 40.71,4.28 q 0.5,0.05 0.5,0.56 l -0.01,83.79 q 0,0.61 0.61,0.69 l 22.18,2.82 q 0.49,0.06 0.92,-0.19 l 9.96,-5.79 q 0.57,-0.34 0.57,-0.99 l 0.03,-75.85 a 0.49,0.48 -85.5 0 1 0.56,-0.48 l 29.37,4.36 q 0.51,0.08 0.52,0.6 0.12,61.3 -0.01,78.71 c -0.03,4.22 -2.04,6.86 -5.99,8.69 q -7.6,3.51 -15.26,6.94 a 0.41,0.41 0 0 0 -0.07,0.71 q 7.59,5.22 14.93,10.65 7.8,5.77 7.92,15.64 0.23,18.98 0.26,37.95 0.01,13.51 -0.81,19.95 -5.91,46.21 -51.27,63.6 a 0.73,0.73 0 0 1 -0.71,-1.26 c 17.27,-13.33 20.11,-39.05 21.5,-59.05 1.53,-22 0.58,-44.84 0.52,-66.93 q 0,-0.49 -0.4,-0.79 c -3.7,-2.68 -10.95,-9.25 -15.23,-9.81 q -14.69,-1.92 -29.99,-3.62 -2.52,-0.28 -0.41,1.13 z"
         inkscape:connector-curvature="0"
         style="fill:#1d1d1d" /><path
         id="path5054"
         d="M 762.75,351.53 V 317.8 q 0,-0.42 -0.26,-0.75 -28.1,-35.9 -56.54,-71.49 c -5.51,-6.89 -8.22,-14.87 -8.21,-24.11 q 0.03,-20.49 0,-40.95 c -0.01,-10.46 7.82,-19.12 17.91,-20.62 q 4.62,-0.69 16.21,1.62 39.09,7.79 78.32,16.96 a 1.07,1.06 -83.5 0 1 0.82,1.04 v 82.2 a 0.3,0.29 19 0 1 -0.48,0.23 l -46.38,-35.18 q -0.37,-0.28 -0.38,-0.75 l -0.28,-17.78 q -0.01,-0.52 -0.53,-0.63 l -16.31,-3.34 a 0.63,0.63 0 0 0 -0.75,0.62 l -0.2,22.17 q 0,0.46 0.29,0.82 25.3,31.59 50.2,63.49 c 8.51,10.92 14.76,20.96 14.79,35.32 q 0.06,24.92 0.03,49.83 c -0.01,15.29 -11.91,23.53 -26.83,20.1 q -27.38,-6.3 -61.94,-12.79 c -9.26,-1.74 -19.94,-11.61 -22.95,-20.93 q -1.52,-4.67 -1.52,-16.91 -0.02,-29.95 -0.01,-59.74 a 0.38,0.37 -72.4 0 1 0.59,-0.31 l 46.46,33.13 q 0.7,0.5 0.7,1.36 v 27.56 q 0,0.48 0.46,0.57 l 16.27,3.41 q 0.52,0.11 0.52,-0.42 z m 4.02,6 -25.41,-5.3 Q 741,352.16 741,351.79 V 322.3 q 0,-0.63 -0.51,-0.99 l -37.64,-26.89 a 0.37,0.37 0 0 0 -0.59,0.3 q -0.04,27.77 0.01,55.47 0.02,7.45 0.8,10.42 c 3.01,11.37 13.54,17.42 24.3,19.52 q 26.74,5.21 53.36,11.07 8.18,1.8 12.16,1.23 c 11.01,-1.57 13.61,-10.37 13.6,-20.43 q -0.02,-23.69 0.05,-47.42 c 0.03,-9.63 -4.5,-18.63 -10.28,-26.11 q -26.81,-34.71 -54.39,-68.87 -0.37,-0.47 -0.37,-1.06 v -29.28 q 0,-0.77 0.76,-0.61 l 25.54,5.34 q 0.45,0.09 0.45,0.56 v 19.64 a 0.63,0.62 18.9 0 0 0.25,0.5 l 37.58,28.49 q 0.42,0.31 0.42,-0.21 v -70.19 q 0,-0.56 -0.55,-0.68 -39.37,-9.15 -79.02,-16.95 c -14.61,-2.88 -24.82,3.68 -24.73,19.26 q 0.12,18.69 0.02,37.41 c -0.04,8.13 2.21,14.98 6.99,20.97 q 29.13,36.52 57.93,73.38 0.36,0.47 0.36,1.06 v 39.7 q 0,0.75 -0.73,0.6 z M 47.09,208.34 q -7.76,-14.59 -15.88,-29.04 -0.3,-0.54 0.29,-0.7 c 1.29,-0.35 3.04,-0.56 3.98,-0.79 q 38.49,-9.52 77.48,-16.72 c 23.8,-4.39 42.07,8.43 45.24,32.17 q 0.51,3.84 0.52,12 0.09,62.74 -0.01,125.49 -0.01,6.44 -2.06,14.01 c -5.02,18.51 -18.73,32.45 -36.79,38.34 q -5.98,1.95 -16.05,2.74 c -6.78,0.54 -14.21,0.33 -20.71,2.41 q -17.64,5.63 -35.1,11.8 -0.5,0.17 -0.5,-0.35 -0.01,-94.23 0,-188.45 0,-2.13 -0.41,-2.91 z m 4.51,-2.72 q 0.15,0.28 0.15,0.59 V 393.5 q 0,0.51 0.49,0.35 14.64,-4.99 29.35,-9.84 c 11.93,-3.94 25.64,-1.57 37.24,-5.24 21.79,-6.9 35.19,-26.27 35.26,-49.28 q 0.19,-63.78 0.14,-127.56 C 154.21,176.76 137.7,161.07 112.5,165.76 q -37.07,6.9 -73.7,15.88 -0.49,0.12 -0.24,0.57 z"
         inkscape:connector-curvature="0"
         style="fill:#3ec1cd;fill-opacity:1" /><path
         id="path5056"
         d="m 352.17,205.36 c -0.06,-6.49 0.16,-12.58 -0.11,-19.42 -1.01,-25.27 17.12,-22.14 34.67,-22.77 q 0.57,-0.02 0.57,0.55 l -0.04,61.86 a 0.29,0.29 0 0 1 -0.28,0.29 l -34.24,1.01 q -0.38,0.01 -0.42,-0.38 c -0.59,-7.09 -0.1,-15.23 -0.15,-21.14 z m 3.81,16.92 q 0,0.35 0.35,0.34 l 26.41,-0.83 q 0.51,-0.01 0.51,-0.53 v -53.24 q 0,-0.48 -0.48,-0.48 C 370.31,167.37 356,165.85 356,182.75 q 0,18.81 -0.02,39.53 z M 767.5,356.93 v -39.7 q 0,-0.59 -0.36,-1.06 -28.8,-36.86 -57.93,-73.38 c -4.78,-5.99 -7.03,-12.84 -6.99,-20.97 q 0.1,-18.72 -0.02,-37.41 c -0.09,-15.58 10.12,-22.14 24.73,-19.26 q 39.65,7.8 79.02,16.95 0.55,0.12 0.55,0.68 v 70.19 q 0,0.52 -0.42,0.21 L 768.5,224.69 a 0.63,0.62 18.9 0 1 -0.25,-0.5 v -19.64 q 0,-0.47 -0.45,-0.56 l -25.54,-5.34 q -0.76,-0.16 -0.76,0.61 v 29.28 q 0,0.59 0.37,1.06 27.58,34.16 54.39,68.87 c 5.78,7.48 10.31,16.48 10.28,26.11 q -0.07,23.73 -0.05,47.42 c 0.01,10.06 -2.59,18.86 -13.6,20.43 q -3.98,0.57 -12.16,-1.23 -26.62,-5.86 -53.36,-11.07 c -10.76,-2.1 -21.29,-8.15 -24.3,-19.52 q -0.78,-2.97 -0.8,-10.42 -0.05,-27.7 -0.01,-55.47 a 0.37,0.37 0 0 1 0.59,-0.3 l 37.64,26.89 q 0.51,0.36 0.51,0.99 v 29.49 q 0,0.37 0.36,0.44 l 25.41,5.3 q 0.73,0.15 0.73,-0.6 z M 726.28,191.72 q 2.27,0.16 6.54,0.97 19.46,3.72 38.88,8.03 a 0.37,0.37 0 0 1 0.3,0.36 v 20.85 a 1.6,1.6 0 0 0 0.64,1.28 l 29.21,22.14 a 0.42,0.42 0 0 0 0.67,-0.33 l -0.03,-59.03 q 0,-0.59 -0.57,-0.72 -36.86,-8.54 -73.95,-15.81 c -8.63,-1.68 -16.73,-1.21 -20.37,7.43 q -1.42,3.36 -1.39,10.89 0.07,18.31 0.05,36.62 c -0.01,8.4 4.61,14.64 9.59,20.88 q 27.92,34.94 55.33,70.28 0.32,0.41 0.32,0.93 v 45.6 a 0.47,0.47 0 0 1 -0.56,0.46 l -33.58,-6.98 q -0.61,-0.13 -0.61,-0.75 v -31.09 q 0,-0.53 -0.43,-0.84 l -29.29,-20.93 a 0.5,0.5 0 0 0 -0.79,0.41 q -0.03,26.62 0.21,53.07 c 0.13,13.8 11.78,18.8 23.21,21.03 q 18.92,3.69 54.64,11.43 12.79,2.78 16.82,-6.98 1.43,-3.46 1.41,-10.99 -0.06,-24.28 -0.04,-48.55 c 0.01,-8.4 -6.86,-18.07 -12.33,-25.07 q -25.92,-33.16 -52.34,-65.97 -0.32,-0.39 -0.32,-0.9 v -28.03 q 0,-0.63 -0.51,-1.02 l -10.84,-8.33 q -0.49,-0.39 0.13,-0.34 z M 51.6,205.62 38.56,182.21 q -0.25,-0.45 0.24,-0.57 36.63,-8.98 73.7,-15.88 c 25.2,-4.69 41.71,11 41.73,36.17 q 0.05,63.78 -0.14,127.56 c -0.07,23.01 -13.47,42.38 -35.26,49.28 -11.6,3.67 -25.31,1.3 -37.24,5.24 q -14.71,4.85 -29.35,9.84 -0.49,0.16 -0.49,-0.35 V 206.21 q 0,-0.31 -0.15,-0.59 z M 146.3,262 q -0.71,-0.59 -0.04,-1.24 c 2.1,-2.04 3.72,-3.62 3.73,-6.81 q 0.07,-26.86 0.02,-53.69 c -0.05,-22.94 -17.15,-34.21 -38.69,-30.14 q -33.03,6.25 -65.83,13.98 -0.67,0.16 -0.34,0.76 4.71,8.66 9.61,17.38 0.99,1.76 0.99,3.79 V 388.2 a 0.24,0.24 0 0 0 0.32,0.22 q 13.24,-4.58 26.57,-8.91 c 8.03,-2.61 18.15,-2.19 26.61,-2.91 19.26,-1.64 34.99,-16 39.33,-33.99 q 1.45,-6 1.43,-19.88 -0.03,-28.51 0,-57.08 0,-0.57 -0.44,-0.93 z"
         inkscape:connector-curvature="0"
         style="fill:#ad192e" /><path
         id="path5058"
         d="M 355.98,222.28 Q 356,201.56 356,182.75 c 0,-16.9 14.31,-15.38 26.77,-15.21 q 0.48,0 0.48,0.48 v 53.24 q 0,0.52 -0.51,0.53 l -26.41,0.83 q -0.35,0.01 -0.35,-0.34 z m 22.6,-5.28 -0.1,-44.28 a 0.51,0.51 0 0 0 -0.52,-0.51 c -7.35,0.17 -17.29,-1.32 -17.38,9.32 q -0.15,17.93 -0.06,36.01 0,0.42 0.42,0.4 l 17.31,-0.6 q 0.33,-0.01 0.33,-0.34 z"
         inkscape:connector-curvature="0"
         style="fill:#3ec1cd;fill-opacity:1" /><path
         id="path5060"
         d="m 726.15,192.06 10.84,8.33 q 0.51,0.39 0.51,1.02 v 28.03 q 0,0.51 0.32,0.9 26.42,32.81 52.34,65.97 c 5.47,7 12.34,16.67 12.33,25.07 q -0.02,24.27 0.04,48.55 0.02,7.53 -1.41,10.99 -4.03,9.76 -16.82,6.98 -35.72,-7.74 -54.64,-11.43 c -11.43,-2.23 -23.08,-7.23 -23.21,-21.03 q -0.24,-26.45 -0.21,-53.07 a 0.5,0.5 0 0 1 0.79,-0.41 l 29.29,20.93 q 0.43,0.31 0.43,0.84 v 31.09 q 0,0.62 0.61,0.75 l 33.58,6.98 a 0.47,0.47 0 0 0 0.56,-0.46 v -45.6 q 0,-0.52 -0.32,-0.93 -27.41,-35.34 -55.33,-70.28 c -4.98,-6.24 -9.6,-12.48 -9.59,-20.88 q 0.02,-18.31 -0.05,-36.62 -0.03,-7.53 1.39,-10.89 c 3.64,-8.64 11.74,-9.11 20.37,-7.43 q 37.09,7.27 73.95,15.81 0.57,0.13 0.57,0.72 l 0.03,59.03 a 0.42,0.42 0 0 1 -0.67,0.33 L 772.64,223.21 A 1.6,1.6 0 0 1 772,221.93 v -20.85 a 0.37,0.37 0 0 0 -0.3,-0.36 q -19.42,-4.31 -38.88,-8.03 -4.27,-0.81 -6.54,-0.97 -0.62,-0.05 -0.13,0.34 z M 146.3,262 l 3.27,2.72 q 0.44,0.36 0.44,0.93 -0.03,28.57 0,57.08 0.02,13.88 -1.43,19.88 c -4.34,17.99 -20.07,32.35 -39.33,33.99 -8.46,0.72 -18.58,0.3 -26.61,2.91 q -13.33,4.33 -26.57,8.91 A 0.24,0.24 0 0 1 55.75,388.2 V 206.03 q 0,-2.03 -0.99,-3.79 -4.9,-8.72 -9.61,-17.38 -0.33,-0.6 0.34,-0.76 32.8,-7.73 65.83,-13.98 c 21.54,-4.07 38.64,7.2 38.69,30.14 q 0.05,26.83 -0.02,53.69 c -0.01,3.19 -1.63,4.77 -3.73,6.81 q -0.67,0.65 0.04,1.24 z M 85.91,204.4 a 0.51,0.51 0 0 1 0.34,0.48 v 154.31 a 0.25,0.24 83.5 0 0 0.3,0.24 c 16.88,-3.44 33.46,-4.09 33.46,-25.92 l -0.02,-120.23 c 0,-8.55 -0.41,-16.74 -9.36,-18.92 q -4,-0.97 -14.17,1.03 -10.83,2.13 -21.59,4.49 a 0.34,0.34 0 0 0 -0.04,0.66 z"
         inkscape:connector-curvature="0"
         style="fill:#1d1d1d" /><path
         id="path5062"
         d="m 226.83,181.32 -11.06,-4.78 q -0.5,-0.22 -0.22,-0.68 c 0.27,-0.43 35.49,-4.08 45.24,-5.01 q 0.46,-0.04 0.46,0.42 v 53.71 q 0,0.52 -0.4,0.85 l -10.19,8.21 q -0.39,0.31 -0.89,0.37 l -21.94,2.44 q -0.58,0.06 -0.58,-0.53 v -54.36 q 0,-0.46 -0.42,-0.64 z m 6.58,-3.61 q -0.97,0.11 -1.63,0.51 -0.29,0.17 -0.29,0.5 l 0.01,53.04 q 0,0.55 0.54,0.49 7.26,-0.8 14.54,-1.63 c 3.92,-0.45 7.5,-4.05 10.27,-6.64 q 0.4,-0.38 0.4,-0.93 V 176 q 0,-0.53 -0.52,-0.49 -11.74,0.81 -23.32,2.2 z"
         inkscape:connector-curvature="0"
         style="fill:#ad192e" /><path
         id="path5066"
         d="m 233.41,177.71 q 11.58,-1.39 23.32,-2.2 0.52,-0.04 0.52,0.49 v 47.05 q 0,0.55 -0.4,0.93 c -2.77,2.59 -6.35,6.19 -10.27,6.64 q -7.28,0.83 -14.54,1.63 -0.54,0.06 -0.54,-0.49 l -0.01,-53.04 q 0,-0.33 0.29,-0.5 0.66,-0.4 1.63,-0.51 z m 18.91,2.66 -15.55,1.68 q -0.77,0.08 -0.77,0.86 v 43.84 q 0,0.54 0.54,0.47 c 6.4,-0.84 11.3,-0.25 15.87,-5.56 q 0.3,-0.35 0.3,-0.81 l 0.12,-40.02 q 0,-0.51 -0.51,-0.46 z"
         inkscape:connector-curvature="0"
         style="fill:#3ec1cd;fill-opacity:1" /><path
         id="path5070"
         d="m 85.91,204.4 -11.08,-3.86 a 0.34,0.34 0 0 1 0.04,-0.66 q 10.76,-2.36 21.59,-4.49 10.17,-2 14.17,-1.03 c 8.95,2.18 9.36,10.37 9.36,18.92 l 0.02,120.23 c 0,21.83 -16.58,22.48 -33.46,25.92 a 0.25,0.24 83.5 0 1 -0.3,-0.24 V 204.88 a 0.51,0.51 0 0 0 -0.34,-0.48 z m 4.39,149.79 a 0.26,0.26 0 0 0 0.31,0.29 c 9.1,-1.73 24.6,-2.8 25.07,-16.46 q 0.24,-6.87 0.26,-16.33 0.15,-62.39 -0.22,-110.5 -0.05,-6.54 -1.58,-9.08 C 110,195.24 97.46,199.17 90.91,200.62 q -0.51,0.11 -0.53,0.63 -0.09,2.5 -0.1,5 -0.03,72.72 -0.03,145.44 0.26,0.11 0.05,2.5 z"
         inkscape:connector-curvature="0"
         style="fill:#ad192e" /><path
         id="path5072"
         d="m 90.3,354.19 q 0.21,-2.39 -0.05,-2.5 0,-72.72 0.03,-145.44 0.01,-2.5 0.1,-5 0.02,-0.52 0.53,-0.63 c 6.55,-1.45 19.09,-5.38 23.23,1.49 q 1.53,2.54 1.58,9.08 0.37,48.11 0.22,110.5 -0.02,9.46 -0.26,16.33 c -0.47,13.66 -15.97,14.73 -25.07,16.46 a 0.26,0.26 0 0 1 -0.31,-0.29 z m 20.95,-17.64 c 0,-42.3 0.63,-84.74 -0.01,-127.02 -0.15,-9.73 -9.73,-6.73 -16.01,-5.14 q -0.48,0.12 -0.48,0.61 v 143.45 a 0.44,0.43 85 0 0 0.51,0.43 c 7.87,-1.43 15.99,-1.93 15.99,-12.33 z"
         inkscape:connector-curvature="0"
         style="fill:#3ec1cd;fill-opacity:1" /><rect
         id="rect5076"
         transform="rotate(40.7,-259.869,362.266)"
         rx="0.41"
         y="-9.8699999"
         x="-8.5200005"
         height="19.74"
         width="17.040001"
         style="fill:#ad192e" /><path
         id="path5078"
         d="m 227.25,336.1 v -71.85 a 0.34,0.34 0 0 1 0.3,-0.33 l 21.68,-2.42 a 0.34,0.34 0 0 1 0.19,0.03 l 13.14,6.49 a 0.34,0.34 0 0 1 0.19,0.3 v 63.95 a 0.34,0.34 0 0 1 -0.3,0.33 l -34.82,3.84 a 0.34,0.34 0 0 1 -0.38,-0.34 z m 19.14,-70.13 c -4.57,0.32 -9.97,0.71 -14.42,1.69 q -0.48,0.1 -0.48,0.59 l 0.01,62.94 q 0,0.61 0.61,0.54 l 26.2,-2.82 q 0.44,-0.04 0.44,-0.48 v -56.96 q 0,-0.56 -0.5,-0.8 c -3.17,-1.58 -8.37,-4.94 -11.86,-4.7 z"
         inkscape:connector-curvature="0"
         style="fill:#ad192e" /><path
         id="path5080"
         d="m 231.97,267.66 c 4.45,-0.98 9.85,-1.37 14.42,-1.69 3.49,-0.24 8.69,3.12 11.86,4.7 q 0.5,0.24 0.5,0.8 v 56.96 q 0,0.44 -0.44,0.48 l -26.2,2.82 q -0.61,0.07 -0.61,-0.54 l -0.01,-62.94 q 0,-0.49 0.48,-0.59 z m 15.21,3.05 c -1.48,-0.64 -8.69,0.67 -10.55,0.99 Q 236,271.81 236,272.45 L 235.99,326 q 0,0.69 0.69,0.62 l 17.43,-1.83 a 0.44,0.43 87.1 0 0 0.39,-0.44 v -49.6 q 0,-0.48 -0.43,-0.71 -3.41,-1.84 -6.89,-3.33 z"
         inkscape:connector-curvature="0"
         style="fill:#3ec1cd;fill-opacity:1" /></g></g></svg>